<svg width="150" height="150" viewBox="0 0 150 150" fill="none" xmlns="http://www.w3.org/2000/svg">
<rect width="150" height="150" rx="20" fill="white"/>
<path d="M90.0815 47.2958H58.663C58.4076 47.2958 60.4511 40 65.3043 40H83.4402C88.2935 40 90.337 47.2958 90.0815 47.2958Z" fill="#2563EB"/>
<path d="M58.663 69.7042H90.0815C90.3369 69.7042 88.2935 77 83.4402 77H65.3043C60.4511 77 58.4076 69.7042 58.663 69.7042Z" fill="#2563EB"/>
<path d="M79.0978 65.5352C79.0978 63.2327 80.9276 61.3662 83.1848 61.3662H97.4891C97.7713 61.3662 98 61.5995 98 61.8873V62.4084C98 64.7109 96.1702 66.5775 93.913 66.5775H79.6087C79.3265 66.5775 79.0978 66.3441 79.0978 66.0563V65.5352Z" fill="#0EDC92"/>
<path d="M98 54.5915C98 52.2891 96.1702 50.4225 93.913 50.4225H79.6087C79.3265 50.4225 79.0978 50.6558 79.0978 50.9437V51.4648C79.0978 53.7673 80.9276 55.6338 83.1848 55.6338H97.4891C97.7713 55.6338 98 55.4005 98 55.1127V54.5915Z" fill="#0EDC92"/>
<path d="M52.5326 50.9437C52.5326 50.6558 52.7613 50.4225 53.0435 50.4225H69.9022C70.1843 50.4225 70.413 50.6558 70.413 50.9437V53.0282C70.413 53.316 70.1843 53.5493 69.9022 53.5493H53.0435C52.7613 53.5493 52.5326 53.316 52.5326 53.0282V50.9437Z" fill="#2563EB"/>
<path d="M52.5326 63.9718C52.5326 63.684 52.7613 63.4507 53.0435 63.4507H69.9022C70.1843 63.4507 70.413 63.684 70.413 63.9718V66.0563C70.413 66.3441 70.1843 66.5775 69.9022 66.5775H53.0435C52.7613 66.5775 52.5326 66.3441 52.5326 66.0563V63.9718Z" fill="#2563EB"/>
<path d="M51 57.1972C51 56.9094 51.2287 56.6761 51.5109 56.6761H66.3261C66.6082 56.6761 66.837 56.9094 66.837 57.1972V59.2817C66.837 59.5695 66.6082 59.8028 66.3261 59.8028H51.5109C51.2287 59.8028 51 59.5695 51 59.2817V57.1972Z" fill="#2563EB"/>
<path d="M57.8086 95.7734C56.9961 96.5859 56.0273 97.2188 54.9023 97.6719C53.7852 98.125 52.5625 98.3516 51.2344 98.3516C49.9141 98.3516 48.6914 98.125 47.5664 97.6719C46.4414 97.2188 45.4648 96.582 44.6367 95.7617C43.8086 94.9336 43.1641 93.9648 42.7031 92.8555C42.25 91.7383 42.0234 90.5234 42.0234 89.2109C42.0234 87.8906 42.25 86.6758 42.7031 85.5664C43.1641 84.457 43.8086 83.4922 44.6367 82.6719C45.4648 81.8438 46.4414 81.2031 47.5664 80.75C48.6914 80.2969 49.9141 80.0703 51.2344 80.0703C52.5547 80.0703 53.7734 80.2969 54.8906 80.75C56.0078 81.2031 56.9727 81.832 57.7852 82.6367L55.6289 84.8281C55.0898 84.1875 54.4414 83.6875 53.6836 83.3281C52.9258 82.9688 52.0938 82.7891 51.1875 82.7891C50.3281 82.7891 49.5312 82.9492 48.7969 83.2695C48.0703 83.5898 47.4375 84.0391 46.8984 84.6172C46.3594 85.1953 45.9375 85.875 45.6328 86.6562C45.3359 87.4375 45.1875 88.2891 45.1875 89.2109C45.1875 90.1328 45.3359 90.9844 45.6328 91.7656C45.9375 92.5391 46.3594 93.2188 46.8984 93.8047C47.4375 94.3828 48.0703 94.832 48.7969 95.1523C49.5312 95.4727 50.3281 95.6328 51.1875 95.6328C52.0938 95.6328 52.9258 95.4531 53.6836 95.0938C54.4414 94.7344 55.0898 94.2344 55.6289 93.5938L57.8086 95.7734ZM65.6016 98.2344C64.4141 98.2344 63.3477 97.9688 62.4023 97.4375C61.4648 96.9062 60.7227 96.1836 60.1758 95.2695C59.6367 94.3477 59.3672 93.3047 59.3672 92.1406C59.3672 90.9766 59.6367 89.9375 60.1758 89.0234C60.7227 88.1016 61.4648 87.375 62.4023 86.8438C63.3477 86.3125 64.4141 86.0469 65.6016 86.0469C66.7969 86.0469 67.8633 86.3125 68.8008 86.8438C69.7383 87.375 70.4727 88.1016 71.0039 89.0234C71.543 89.9375 71.8125 90.9766 71.8125 92.1406C71.8125 93.3047 71.543 94.3477 71.0039 95.2695C70.4727 96.1836 69.7383 96.9062 68.8008 97.4375C67.8633 97.9688 66.7969 98.2344 65.6016 98.2344ZM65.5898 95.6445C66.2148 95.6445 66.7734 95.4922 67.2656 95.1875C67.7578 94.8828 68.1445 94.4648 68.4258 93.9336C68.7148 93.4023 68.8594 92.8008 68.8594 92.1289C68.8594 91.4648 68.7148 90.8711 68.4258 90.3477C68.1445 89.8164 67.7578 89.3984 67.2656 89.0938C66.7734 88.7891 66.2148 88.6367 65.5898 88.6367C64.9727 88.6367 64.4141 88.7891 63.9141 89.0938C63.4219 89.3984 63.0312 89.8164 62.7422 90.3477C62.4609 90.8711 62.3203 91.4648 62.3203 92.1289C62.3203 92.8008 62.4609 93.4023 62.7422 93.9336C63.0312 94.4648 63.4219 94.8828 63.9141 95.1875C64.4141 95.4922 64.9727 95.6445 65.5898 95.6445ZM85.582 98H82.6992V91.6836C82.6992 90.7383 82.4609 89.9961 81.9844 89.457C81.5156 88.918 80.8633 88.6484 80.0273 88.6484C79.4414 88.6484 78.9219 88.7852 78.4688 89.0586C78.0156 89.3242 77.6602 89.707 77.4023 90.207C77.1445 90.707 77.0156 91.2891 77.0156 91.9531V98H74.1328V86.2812H76.5117L76.6055 88.168C77.0273 87.4805 77.6016 86.957 78.3281 86.5977C79.0547 86.2305 79.8828 86.0469 80.8125 86.0469C82.2891 86.0469 83.4531 86.4961 84.3047 87.3945C85.1562 88.293 85.582 89.5234 85.582 91.0859V98ZM95.9648 97.6953C95.1055 98.0547 94.2734 98.2344 93.4688 98.2344C92.6484 98.2344 91.9258 98.0586 91.3008 97.707C90.6836 97.3555 90.1992 96.8672 89.8477 96.2422C89.5039 95.6094 89.332 94.875 89.332 94.0391V88.8594H87.2812V86.2812H89.4844V83.3516H92.2148V86.2812H95.5547V88.8594H92.2148V93.5117C92.2148 94.1758 92.3945 94.6992 92.7539 95.082C93.1211 95.4648 93.5781 95.6562 94.125 95.6562C94.6094 95.6562 95.0898 95.5078 95.5664 95.2109L95.9648 97.6953ZM101.215 98H98.1328V80.4219H101.215V98ZM105.809 83.1758C105.402 83.1758 105.059 83.0352 104.777 82.7539C104.504 82.4648 104.367 82.1172 104.367 81.7109C104.367 81.3125 104.504 80.9727 104.777 80.6914C105.059 80.4023 105.402 80.2578 105.809 80.2578C106.223 80.2578 106.57 80.4023 106.852 80.6914C107.133 80.9727 107.273 81.3125 107.273 81.7109C107.273 82.1172 107.133 82.4648 106.852 82.7539C106.57 83.0352 106.223 83.1758 105.809 83.1758ZM107.25 98H104.367V86.2812H107.25V98Z" fill="#1F2937"/>
<path d="M28.7344 107.34C28.502 107.58 28.2228 107.766 27.897 107.901C27.5711 108.035 27.2168 108.103 26.834 108.103C26.4489 108.103 26.0946 108.036 25.771 107.904C25.4474 107.772 25.166 107.586 24.9268 107.347C24.6898 107.106 24.5052 106.823 24.373 106.5C24.2432 106.174 24.1782 105.819 24.1782 105.437C24.1782 105.051 24.2432 104.697 24.373 104.374C24.5052 104.048 24.6898 103.765 24.9268 103.526C25.166 103.287 25.4474 103.101 25.771 102.969C26.0946 102.837 26.4489 102.771 26.834 102.771C27.2168 102.771 27.57 102.838 27.8936 102.972C28.2194 103.107 28.4997 103.292 28.7344 103.529L28.4165 103.851C28.2228 103.639 27.9893 103.473 27.7158 103.355C27.4447 103.234 27.1473 103.174 26.8237 103.174C26.5093 103.174 26.2188 103.231 25.9521 103.345C25.6855 103.456 25.4543 103.615 25.2583 103.82C25.0623 104.023 24.9097 104.262 24.8003 104.538C24.6932 104.811 24.6396 105.111 24.6396 105.437C24.6396 105.762 24.6932 106.063 24.8003 106.339C24.9097 106.612 25.0623 106.852 25.2583 107.057C25.4543 107.259 25.6855 107.418 25.9521 107.532C26.2188 107.643 26.5093 107.699 26.8237 107.699C27.1473 107.699 27.4447 107.64 27.7158 107.521C27.9893 107.401 28.2228 107.234 28.4165 107.022L28.7344 107.34ZM31.127 108.068C30.7897 108.068 30.4867 107.991 30.2178 107.836C29.9489 107.681 29.737 107.47 29.582 107.204C29.4271 106.935 29.3496 106.631 29.3496 106.291C29.3496 105.954 29.4271 105.652 29.582 105.385C29.737 105.116 29.9489 104.904 30.2178 104.75C30.4867 104.592 30.7897 104.514 31.127 104.514C31.4619 104.514 31.7627 104.592 32.0293 104.75C32.2959 104.904 32.5067 105.116 32.6616 105.385C32.8166 105.652 32.894 105.954 32.894 106.291C32.894 106.628 32.8166 106.931 32.6616 107.2C32.5067 107.469 32.2959 107.681 32.0293 107.836C31.7627 107.991 31.4619 108.068 31.127 108.068ZM31.1235 107.689C31.3787 107.689 31.6066 107.627 31.8071 107.504C32.0099 107.381 32.1694 107.215 32.2856 107.005C32.4041 106.793 32.4634 106.555 32.4634 106.291C32.4634 106.027 32.4041 105.79 32.2856 105.58C32.1694 105.368 32.0099 105.201 31.8071 105.078C31.6066 104.955 31.3787 104.893 31.1235 104.893C30.8683 104.893 30.6393 104.955 30.4365 105.078C30.2337 105.201 30.0731 105.368 29.9546 105.58C29.8384 105.79 29.7803 106.027 29.7803 106.291C29.7803 106.555 29.8384 106.793 29.9546 107.005C30.0731 107.215 30.2337 107.381 30.4365 107.504C30.6393 107.627 30.8683 107.689 31.1235 107.689ZM36.8657 108H36.4453V106.045C36.4453 105.689 36.3496 105.41 36.1582 105.208C35.9668 105.002 35.7036 104.9 35.3687 104.9C35.134 104.9 34.9266 104.951 34.7466 105.054C34.5666 105.154 34.4253 105.296 34.3228 105.481C34.2225 105.666 34.1724 105.883 34.1724 106.134V108H33.752V104.582H34.1245L34.1382 105.225C34.2567 104.994 34.4287 104.819 34.6543 104.698C34.8799 104.575 35.1408 104.514 35.437 104.514C35.8791 104.514 36.2277 104.647 36.4829 104.914C36.7381 105.18 36.8657 105.544 36.8657 106.004V108ZM39.7197 107.921C39.5124 108.019 39.3073 108.068 39.1045 108.068C38.9131 108.068 38.7456 108.026 38.6021 107.942C38.4608 107.858 38.3503 107.739 38.2705 107.586C38.1908 107.434 38.1509 107.256 38.1509 107.053V104.961H37.5527V104.582H38.168V103.728H38.5713V104.582H39.6172V104.961H38.5713V106.978C38.5713 107.192 38.6283 107.364 38.7422 107.494C38.8561 107.624 39.0065 107.689 39.1934 107.689C39.3415 107.689 39.4907 107.646 39.6411 107.559L39.7197 107.921ZM40.8579 108H40.4375V104.582H40.8101L40.8271 105.337C40.9411 105.073 41.1097 104.87 41.333 104.729C41.5586 104.585 41.8218 104.514 42.1226 104.514C42.1772 104.514 42.2331 104.517 42.29 104.524C42.3493 104.528 42.4074 104.536 42.4644 104.548L42.4131 104.927C42.3014 104.904 42.1898 104.893 42.0781 104.893C41.8411 104.893 41.6304 104.951 41.4458 105.067C41.2612 105.184 41.1165 105.344 41.0117 105.549C40.9092 105.752 40.8579 105.987 40.8579 106.253V108ZM44.6211 108.068C44.2839 108.068 43.9808 107.991 43.7119 107.836C43.443 107.681 43.2311 107.47 43.0762 107.204C42.9212 106.935 42.8438 106.631 42.8438 106.291C42.8438 105.954 42.9212 105.652 43.0762 105.385C43.2311 105.116 43.443 104.904 43.7119 104.75C43.9808 104.592 44.2839 104.514 44.6211 104.514C44.9561 104.514 45.2568 104.592 45.5234 104.75C45.79 104.904 46.0008 105.116 46.1558 105.385C46.3107 105.652 46.3882 105.954 46.3882 106.291C46.3882 106.628 46.3107 106.931 46.1558 107.2C46.0008 107.469 45.79 107.681 45.5234 107.836C45.2568 107.991 44.9561 108.068 44.6211 108.068ZM44.6177 107.689C44.8729 107.689 45.1007 107.627 45.3013 107.504C45.5041 107.381 45.6636 107.215 45.7798 107.005C45.8983 106.793 45.9575 106.555 45.9575 106.291C45.9575 106.027 45.8983 105.79 45.7798 105.58C45.6636 105.368 45.5041 105.201 45.3013 105.078C45.1007 104.955 44.8729 104.893 44.6177 104.893C44.3625 104.893 44.1335 104.955 43.9307 105.078C43.7279 105.201 43.5672 105.368 43.4487 105.58C43.3325 105.79 43.2744 106.027 43.2744 106.291C43.2744 106.555 43.3325 106.793 43.4487 107.005C43.5672 107.215 43.7279 107.381 43.9307 107.504C44.1335 107.627 44.3625 107.689 44.6177 107.689ZM47.687 108H47.2461V102.873H47.687V108ZM51.7852 107.573C51.3659 107.903 50.901 108.068 50.3906 108.068C50.0374 108.068 49.7207 107.99 49.4404 107.833C49.1624 107.673 48.9437 107.457 48.7842 107.183C48.6247 106.91 48.5449 106.6 48.5449 106.253C48.5449 105.918 48.619 105.62 48.7671 105.358C48.9175 105.096 49.1226 104.89 49.3823 104.739C49.6421 104.589 49.9372 104.514 50.2676 104.514C50.6025 104.514 50.8976 104.593 51.1528 104.753C51.408 104.91 51.6074 105.129 51.751 105.409C51.8945 105.687 51.9663 106.01 51.9663 106.376V106.482H48.9995C49.0269 106.722 49.1055 106.931 49.2354 107.111C49.3652 107.291 49.5327 107.431 49.7378 107.532C49.9451 107.632 50.1764 107.682 50.4316 107.682C50.8509 107.682 51.236 107.543 51.5869 107.265L51.7852 107.573ZM48.9858 106.12H51.5732C51.5527 105.876 51.4855 105.663 51.3716 105.481C51.2576 105.299 51.1073 105.156 50.9204 105.054C50.7358 104.951 50.5251 104.9 50.2881 104.9C50.0488 104.9 49.8335 104.951 49.6421 105.054C49.453 105.156 49.3003 105.3 49.1841 105.484C49.0701 105.667 49.0041 105.879 48.9858 106.12ZM54.3281 107.703L54.4512 107.313C54.5355 107.39 54.6289 107.457 54.7314 107.511C54.8363 107.566 54.9445 107.608 55.0562 107.638C55.1701 107.667 55.2852 107.682 55.4014 107.682C55.6338 107.682 55.8229 107.625 55.9688 107.511C56.1146 107.397 56.1875 107.249 56.1875 107.067C56.1875 106.937 56.151 106.831 56.0781 106.749C56.0052 106.665 55.9095 106.593 55.791 106.534C55.6725 106.474 55.5472 106.419 55.415 106.366C55.2624 106.307 55.1131 106.241 54.9673 106.168C54.8215 106.093 54.7007 105.996 54.605 105.877C54.5116 105.759 54.4648 105.603 54.4648 105.409C54.4648 105.227 54.5093 105.07 54.5981 104.938C54.6893 104.803 54.8158 104.699 54.9775 104.626C55.1416 104.551 55.3307 104.514 55.5449 104.514C55.8525 104.514 56.1556 104.589 56.4541 104.739L56.3242 105.119C56.2536 105.075 56.1738 105.038 56.085 105.006C55.9961 104.972 55.9049 104.945 55.8115 104.927C55.7181 104.909 55.6292 104.9 55.5449 104.9C55.3512 104.9 55.1951 104.947 55.0767 105.04C54.9582 105.131 54.8989 105.252 54.8989 105.402C54.8989 105.5 54.9251 105.586 54.9775 105.659C55.0322 105.729 55.1143 105.795 55.2236 105.857C55.333 105.918 55.4697 105.983 55.6338 106.052C55.791 106.116 55.9448 106.188 56.0952 106.271C56.2456 106.35 56.3698 106.453 56.4678 106.578C56.568 106.703 56.6182 106.866 56.6182 107.067C56.6182 107.263 56.5669 107.437 56.4644 107.59C56.3641 107.74 56.224 107.858 56.0439 107.942C55.8662 108.026 55.6589 108.068 55.4219 108.068C55.0277 108.068 54.6631 107.946 54.3281 107.703ZM57.7461 103.382C57.6663 103.382 57.5991 103.355 57.5444 103.3C57.492 103.243 57.4658 103.175 57.4658 103.095C57.4658 103.018 57.492 102.952 57.5444 102.897C57.5991 102.842 57.6663 102.815 57.7461 102.815C57.8281 102.815 57.8965 102.842 57.9512 102.897C58.0081 102.952 58.0366 103.018 58.0366 103.095C58.0366 103.175 58.0081 103.243 57.9512 103.3C57.8965 103.355 57.8281 103.382 57.7461 103.382ZM57.958 108H57.5376V104.582H57.958V108ZM64.4795 108H64.0591V106.144C64.0591 105.75 63.9702 105.443 63.7925 105.225C63.6147 105.004 63.3664 104.893 63.0474 104.893C62.7261 104.893 62.4731 105.005 62.2886 105.228C62.104 105.449 62.0117 105.754 62.0117 106.144V108H61.5913V106.144C61.5913 105.75 61.5024 105.443 61.3247 105.225C61.147 105.004 60.8975 104.893 60.5762 104.893C60.2549 104.893 60.002 105.005 59.8174 105.228C59.6328 105.449 59.5405 105.754 59.5405 106.144V108H59.1201V104.582H59.4688L59.4858 105.255C59.5952 105.012 59.7502 104.827 59.9507 104.702C60.1535 104.576 60.395 104.514 60.6753 104.514C60.9784 104.514 61.2347 104.587 61.4443 104.732C61.654 104.878 61.8044 105.087 61.8955 105.358C61.998 105.082 62.1541 104.873 62.3638 104.729C62.5757 104.585 62.8332 104.514 63.1362 104.514C63.5601 104.514 63.8893 104.649 64.124 104.92C64.361 105.192 64.4795 105.571 64.4795 106.059V108ZM65.9731 109.709H65.5527V104.582H65.9321L65.9492 105.238C66.0973 105.013 66.2944 104.836 66.5405 104.708C66.7866 104.579 67.0589 104.514 67.3574 104.514C67.6924 104.514 67.992 104.591 68.2563 104.746C68.5229 104.901 68.7326 105.113 68.8853 105.382C69.0402 105.648 69.1177 105.951 69.1177 106.291C69.1177 106.628 69.0402 106.931 68.8853 107.2C68.7326 107.469 68.5229 107.681 68.2563 107.836C67.992 107.991 67.6924 108.068 67.3574 108.068C67.0658 108.068 66.7992 108.007 66.5576 107.884C66.3161 107.761 66.1213 107.59 65.9731 107.371V109.709ZM67.3335 107.682C67.5933 107.682 67.8245 107.623 68.0273 107.504C68.2324 107.384 68.3919 107.218 68.5059 107.009C68.6221 106.797 68.6802 106.556 68.6802 106.288C68.6802 106.019 68.6221 105.779 68.5059 105.57C68.3896 105.36 68.2301 105.195 68.0273 105.074C67.8245 104.953 67.5933 104.893 67.3335 104.893C67.0874 104.893 66.863 104.949 66.6602 105.061C66.4596 105.17 66.2979 105.321 66.1748 105.515C66.0518 105.709 65.9845 105.929 65.9731 106.175V106.407C65.9845 106.653 66.0506 106.873 66.1714 107.067C66.2944 107.258 66.4562 107.409 66.6567 107.518C66.8595 107.627 67.0851 107.682 67.3335 107.682ZM70.4165 108H69.9756V102.873H70.4165V108ZM74.5146 107.573C74.0954 107.903 73.6305 108.068 73.1201 108.068C72.7669 108.068 72.4502 107.99 72.1699 107.833C71.8919 107.673 71.6732 107.457 71.5137 107.183C71.3542 106.91 71.2744 106.6 71.2744 106.253C71.2744 105.918 71.3485 105.62 71.4966 105.358C71.647 105.096 71.8521 104.89 72.1118 104.739C72.3716 104.589 72.6667 104.514 72.9971 104.514C73.332 104.514 73.6271 104.593 73.8823 104.753C74.1375 104.91 74.3369 105.129 74.4805 105.409C74.624 105.687 74.6958 106.01 74.6958 106.376V106.482H71.729C71.7563 106.722 71.835 106.931 71.9648 107.111C72.0947 107.291 72.2622 107.431 72.4673 107.532C72.6746 107.632 72.9059 107.682 73.1611 107.682C73.5804 107.682 73.9655 107.543 74.3164 107.265L74.5146 107.573ZM71.7153 106.12H74.3027C74.2822 105.876 74.215 105.663 74.1011 105.481C73.9871 105.299 73.8368 105.156 73.6499 105.054C73.4653 104.951 73.2546 104.9 73.0176 104.9C72.7783 104.9 72.563 104.951 72.3716 105.054C72.1825 105.156 72.0298 105.3 71.9136 105.484C71.7996 105.667 71.7336 105.879 71.7153 106.12ZM75.3145 107.703L75.4375 107.313C75.5218 107.39 75.6152 107.457 75.7178 107.511C75.8226 107.566 75.9308 107.608 76.0425 107.638C76.1564 107.667 76.2715 107.682 76.3877 107.682C76.6201 107.682 76.8092 107.625 76.9551 107.511C77.1009 107.397 77.1738 107.249 77.1738 107.067C77.1738 106.937 77.1374 106.831 77.0645 106.749C76.9915 106.665 76.8958 106.593 76.7773 106.534C76.6589 106.474 76.5335 106.419 76.4014 106.366C76.2487 106.307 76.0994 106.241 75.9536 106.168C75.8078 106.093 75.687 105.996 75.5913 105.877C75.4979 105.759 75.4512 105.603 75.4512 105.409C75.4512 105.227 75.4956 105.07 75.5845 104.938C75.6756 104.803 75.8021 104.699 75.9639 104.626C76.1279 104.551 76.3171 104.514 76.5312 104.514C76.8389 104.514 77.1419 104.589 77.4404 104.739L77.3105 105.119C77.2399 105.075 77.1602 105.038 77.0713 105.006C76.9824 104.972 76.8913 104.945 76.7979 104.927C76.7044 104.909 76.6156 104.9 76.5312 104.9C76.3376 104.9 76.1815 104.947 76.063 105.04C75.9445 105.131 75.8853 105.252 75.8853 105.402C75.8853 105.5 75.9115 105.586 75.9639 105.659C76.0186 105.729 76.1006 105.795 76.21 105.857C76.3193 105.918 76.4561 105.983 76.6201 106.052C76.7773 106.116 76.9312 106.188 77.0815 106.271C77.2319 106.35 77.3561 106.453 77.4541 106.578C77.5544 106.703 77.6045 106.866 77.6045 107.067C77.6045 107.263 77.5532 107.437 77.4507 107.59C77.3504 107.74 77.2103 107.858 77.0303 107.942C76.8525 108.026 76.6452 108.068 76.4082 108.068C76.014 108.068 75.6494 107.946 75.3145 107.703ZM78.6709 108.82H78.3564L78.6572 107.385H79.0537L78.6709 108.82ZM84.6216 107.525C84.4575 107.698 84.2638 107.833 84.0405 107.928C83.8195 108.022 83.5802 108.068 83.3228 108.068C82.9855 108.068 82.6825 107.991 82.4136 107.836C82.147 107.681 81.9362 107.469 81.7812 107.2C81.6263 106.931 81.5488 106.628 81.5488 106.291C81.5488 105.951 81.6263 105.648 81.7812 105.382C81.9362 105.113 82.147 104.901 82.4136 104.746C82.6825 104.591 82.9855 104.514 83.3228 104.514C83.578 104.514 83.8172 104.56 84.0405 104.654C84.2638 104.747 84.4564 104.881 84.6182 105.054L84.3618 105.324C84.2342 105.189 84.0815 105.086 83.9038 105.013C83.7284 104.938 83.5404 104.9 83.3398 104.9C83.0778 104.9 82.8442 104.96 82.6392 105.081C82.4364 105.2 82.2757 105.364 82.1572 105.573C82.041 105.783 81.9829 106.021 81.9829 106.288C81.9829 106.556 82.041 106.797 82.1572 107.009C82.2757 107.218 82.4364 107.384 82.6392 107.504C82.8442 107.623 83.0778 107.682 83.3398 107.682C83.5404 107.682 83.7295 107.646 83.9072 107.573C84.085 107.498 84.2365 107.393 84.3618 107.258L84.6216 107.525ZM86.9902 108.068C86.653 108.068 86.3499 107.991 86.0811 107.836C85.8122 107.681 85.6003 107.47 85.4453 107.204C85.2904 106.935 85.2129 106.631 85.2129 106.291C85.2129 105.954 85.2904 105.652 85.4453 105.385C85.6003 105.116 85.8122 104.904 86.0811 104.75C86.3499 104.592 86.653 104.514 86.9902 104.514C87.3252 104.514 87.626 104.592 87.8926 104.75C88.1592 104.904 88.37 105.116 88.5249 105.385C88.6799 105.652 88.7573 105.954 88.7573 106.291C88.7573 106.628 88.6799 106.931 88.5249 107.2C88.37 107.469 88.1592 107.681 87.8926 107.836C87.626 107.991 87.3252 108.068 86.9902 108.068ZM86.9868 107.689C87.242 107.689 87.4699 107.627 87.6704 107.504C87.8732 107.381 88.0327 107.215 88.1489 107.005C88.2674 106.793 88.3267 106.555 88.3267 106.291C88.3267 106.027 88.2674 105.79 88.1489 105.58C88.0327 105.368 87.8732 105.201 87.6704 105.078C87.4699 104.955 87.242 104.893 86.9868 104.893C86.7316 104.893 86.5026 104.955 86.2998 105.078C86.097 105.201 85.9364 105.368 85.8179 105.58C85.7017 105.79 85.6436 106.027 85.6436 106.291C85.6436 106.555 85.7017 106.793 85.8179 107.005C85.9364 107.215 86.097 107.381 86.2998 107.504C86.5026 107.627 86.7316 107.689 86.9868 107.689ZM92.729 108H92.3086V106.045C92.3086 105.689 92.2129 105.41 92.0215 105.208C91.8301 105.002 91.5669 104.9 91.2319 104.9C90.9972 104.9 90.7899 104.951 90.6099 105.054C90.4299 105.154 90.2886 105.296 90.186 105.481C90.0858 105.666 90.0356 105.883 90.0356 106.134V108H89.6152V104.582H89.9878L90.0015 105.225C90.12 104.994 90.292 104.819 90.5176 104.698C90.7432 104.575 91.0041 104.514 91.3003 104.514C91.7424 104.514 92.091 104.647 92.3462 104.914C92.6014 105.18 92.729 105.544 92.729 106.004V108ZM95.583 107.921C95.3757 108.019 95.1706 108.068 94.9678 108.068C94.7764 108.068 94.6089 108.026 94.4653 107.942C94.3241 107.858 94.2135 107.739 94.1338 107.586C94.054 107.434 94.0142 107.256 94.0142 107.053V104.961H93.416V104.582H94.0312V103.728H94.4346V104.582H95.4805V104.961H94.4346V106.978C94.4346 107.192 94.4915 107.364 94.6055 107.494C94.7194 107.624 94.8698 107.689 95.0566 107.689C95.2048 107.689 95.354 107.646 95.5044 107.559L95.583 107.921ZM98.9976 108H98.6387L98.6045 107.429C98.4906 107.625 98.3311 107.781 98.126 107.897C97.9209 108.011 97.6873 108.068 97.4253 108.068C97.1838 108.068 96.9673 108.022 96.7759 107.928C96.5868 107.833 96.4375 107.703 96.3281 107.539C96.2188 107.372 96.1641 107.184 96.1641 106.975C96.1641 106.756 96.2233 106.562 96.3418 106.394C96.4603 106.225 96.6232 106.093 96.8306 105.997C97.0379 105.899 97.2738 105.85 97.5381 105.85C97.7227 105.85 97.9061 105.874 98.0884 105.922C98.2707 105.97 98.4336 106.037 98.5771 106.124V105.891C98.5771 105.684 98.5316 105.506 98.4404 105.358C98.3493 105.21 98.224 105.097 98.0645 105.02C97.9072 104.94 97.7284 104.9 97.5278 104.9C97.3547 104.9 97.1815 104.932 97.0083 104.996C96.8351 105.057 96.6733 105.149 96.5229 105.272L96.3726 104.91C96.5594 104.78 96.7588 104.682 96.9707 104.616C97.1849 104.548 97.3979 104.514 97.6099 104.514C97.8947 104.514 98.1396 104.572 98.3447 104.688C98.5521 104.804 98.7127 104.969 98.8267 105.184C98.9406 105.396 98.9976 105.648 98.9976 105.942V108ZM97.4937 107.682C97.6919 107.682 97.8708 107.64 98.0303 107.556C98.1921 107.469 98.3219 107.348 98.4199 107.193C98.5179 107.036 98.5703 106.856 98.5771 106.653V106.537C98.4359 106.43 98.2821 106.349 98.1157 106.294C97.9517 106.237 97.7808 106.209 97.603 106.209C97.3136 106.209 97.0732 106.278 96.8818 106.417C96.6927 106.556 96.5981 106.735 96.5981 106.954C96.5981 107.091 96.6369 107.215 96.7144 107.327C96.7941 107.436 96.9012 107.523 97.0356 107.586C97.1724 107.65 97.325 107.682 97.4937 107.682ZM99.8281 107.703L99.9512 107.313C100.035 107.39 100.129 107.457 100.231 107.511C100.336 107.566 100.444 107.608 100.556 107.638C100.67 107.667 100.785 107.682 100.901 107.682C101.134 107.682 101.323 107.625 101.469 107.511C101.615 107.397 101.688 107.249 101.688 107.067C101.688 106.937 101.651 106.831 101.578 106.749C101.505 106.665 101.41 106.593 101.291 106.534C101.173 106.474 101.047 106.419 100.915 106.366C100.762 106.307 100.613 106.241 100.467 106.168C100.321 106.093 100.201 105.996 100.105 105.877C100.012 105.759 99.9648 105.603 99.9648 105.409C99.9648 105.227 100.009 105.07 100.098 104.938C100.189 104.803 100.316 104.699 100.478 104.626C100.642 104.551 100.831 104.514 101.045 104.514C101.353 104.514 101.656 104.589 101.954 104.739L101.824 105.119C101.754 105.075 101.674 105.038 101.585 105.006C101.496 104.972 101.405 104.945 101.312 104.927C101.218 104.909 101.129 104.9 101.045 104.9C100.851 104.9 100.695 104.947 100.577 105.04C100.458 105.131 100.399 105.252 100.399 105.402C100.399 105.5 100.425 105.586 100.478 105.659C100.532 105.729 100.614 105.795 100.724 105.857C100.833 105.918 100.97 105.983 101.134 106.052C101.291 106.116 101.445 106.188 101.595 106.271C101.746 106.35 101.87 106.453 101.968 106.578C102.068 106.703 102.118 106.866 102.118 107.067C102.118 107.263 102.067 107.437 101.964 107.59C101.864 107.74 101.724 107.858 101.544 107.942C101.366 108.026 101.159 108.068 100.922 108.068C100.528 108.068 100.163 107.946 99.8281 107.703ZM107.717 107.573C107.298 107.903 106.833 108.068 106.322 108.068C105.969 108.068 105.652 107.99 105.372 107.833C105.094 107.673 104.875 107.457 104.716 107.183C104.556 106.91 104.477 106.6 104.477 106.253C104.477 105.918 104.551 105.62 104.699 105.358C104.849 105.096 105.054 104.89 105.314 104.739C105.574 104.589 105.869 104.514 106.199 104.514C106.534 104.514 106.829 104.593 107.084 104.753C107.34 104.91 107.539 105.129 107.683 105.409C107.826 105.687 107.898 106.01 107.898 106.376V106.482H104.931C104.958 106.722 105.037 106.931 105.167 107.111C105.297 107.291 105.464 107.431 105.669 107.532C105.877 107.632 106.108 107.682 106.363 107.682C106.783 107.682 107.168 107.543 107.519 107.265L107.717 107.573ZM104.917 106.12H107.505C107.484 105.876 107.417 105.663 107.303 105.481C107.189 105.299 107.039 105.156 106.852 105.054C106.667 104.951 106.457 104.9 106.22 104.9C105.98 104.9 105.765 104.951 105.574 105.054C105.385 105.156 105.232 105.3 105.116 105.484C105.002 105.667 104.936 105.879 104.917 106.12ZM114.115 108H113.695V106.144C113.695 105.75 113.606 105.443 113.428 105.225C113.25 105.004 113.002 104.893 112.683 104.893C112.362 104.893 112.109 105.005 111.924 105.228C111.74 105.449 111.647 105.754 111.647 106.144V108H111.227V106.144C111.227 105.75 111.138 105.443 110.96 105.225C110.783 105.004 110.533 104.893 110.212 104.893C109.891 104.893 109.638 105.005 109.453 105.228C109.269 105.449 109.176 105.754 109.176 106.144V108H108.756V104.582H109.104L109.122 105.255C109.231 105.012 109.386 104.827 109.586 104.702C109.789 104.576 110.031 104.514 110.311 104.514C110.614 104.514 110.87 104.587 111.08 104.732C111.29 104.878 111.44 105.087 111.531 105.358C111.634 105.082 111.79 104.873 112 104.729C112.211 104.585 112.469 104.514 112.772 104.514C113.196 104.514 113.525 104.649 113.76 104.92C113.997 105.192 114.115 105.571 114.115 106.059V108ZM120.223 108H119.844L119.823 107.344C119.677 107.569 119.481 107.747 119.235 107.877C118.992 108.005 118.719 108.068 118.418 108.068C118.083 108.068 117.783 107.991 117.516 107.836C117.252 107.681 117.042 107.469 116.887 107.2C116.735 106.931 116.658 106.628 116.658 106.291C116.658 105.951 116.735 105.648 116.887 105.382C117.042 105.113 117.252 104.901 117.516 104.746C117.783 104.591 118.083 104.514 118.418 104.514C118.712 104.514 118.98 104.576 119.222 104.702C119.463 104.825 119.657 104.996 119.803 105.214V102.873H120.223V108ZM118.449 107.689C118.698 107.689 118.924 107.632 119.129 107.518C119.334 107.402 119.497 107.245 119.618 107.046C119.741 106.846 119.803 106.619 119.803 106.366V106.212C119.803 105.962 119.742 105.737 119.622 105.539C119.501 105.339 119.338 105.181 119.133 105.067C118.93 104.951 118.702 104.893 118.449 104.893C118.192 104.893 117.959 104.955 117.752 105.078C117.547 105.198 117.385 105.365 117.267 105.577C117.148 105.786 117.089 106.023 117.089 106.288C117.089 106.554 117.148 106.793 117.267 107.005C117.385 107.215 117.547 107.381 117.752 107.504C117.957 107.627 118.189 107.689 118.449 107.689ZM121.594 103.382C121.514 103.382 121.447 103.355 121.392 103.3C121.34 103.243 121.313 103.175 121.313 103.095C121.313 103.018 121.34 102.952 121.392 102.897C121.447 102.842 121.514 102.815 121.594 102.815C121.676 102.815 121.744 102.842 121.799 102.897C121.856 102.952 121.884 103.018 121.884 103.095C121.884 103.175 121.856 103.243 121.799 103.3C121.744 103.355 121.676 103.382 121.594 103.382ZM121.806 108H121.385V104.582H121.806V108ZM125.63 108H125.271L125.237 107.429C125.123 107.625 124.964 107.781 124.759 107.897C124.554 108.011 124.32 108.068 124.058 108.068C123.817 108.068 123.6 108.022 123.409 107.928C123.22 107.833 123.07 107.703 122.961 107.539C122.852 107.372 122.797 107.184 122.797 106.975C122.797 106.756 122.856 106.562 122.975 106.394C123.093 106.225 123.256 106.093 123.463 105.997C123.671 105.899 123.907 105.85 124.171 105.85C124.355 105.85 124.539 105.874 124.721 105.922C124.903 105.97 125.066 106.037 125.21 106.124V105.891C125.21 105.684 125.164 105.506 125.073 105.358C124.982 105.21 124.857 105.097 124.697 105.02C124.54 104.94 124.361 104.9 124.161 104.9C123.987 104.9 123.814 104.932 123.641 104.996C123.468 105.057 123.306 105.149 123.156 105.272L123.005 104.91C123.192 104.78 123.392 104.682 123.604 104.616C123.818 104.548 124.031 104.514 124.243 104.514C124.528 104.514 124.772 104.572 124.978 104.688C125.185 104.804 125.346 104.969 125.459 105.184C125.573 105.396 125.63 105.648 125.63 105.942V108ZM124.126 107.682C124.325 107.682 124.504 107.64 124.663 107.556C124.825 107.469 124.955 107.348 125.053 107.193C125.151 107.036 125.203 106.856 125.21 106.653V106.537C125.069 106.43 124.915 106.349 124.749 106.294C124.584 106.237 124.414 106.209 124.236 106.209C123.946 106.209 123.706 106.278 123.515 106.417C123.326 106.556 123.231 106.735 123.231 106.954C123.231 107.091 123.27 107.215 123.347 107.327C123.427 107.436 123.534 107.523 123.668 107.586C123.805 107.65 123.958 107.682 124.126 107.682Z" fill="#1F2937"/>
</svg>
