<svg width="290" height="20" viewBox="0 0 290 20" fill="none" xmlns="http://www.w3.org/2000/svg">
<path d="M13.0176 13.0566C12.3535 13.7402 11.556 14.2741 10.625 14.6582C9.69401 15.0423 8.68164 15.2344 7.58789 15.2344C6.48763 15.2344 5.47526 15.0456 4.55078 14.668C3.6263 14.2904 2.82227 13.7598 2.13867 13.0762C1.46159 12.3861 0.934245 11.5788 0.556641 10.6543C0.185547 9.72331 0 8.71094 0 7.61719C0 6.51693 0.185547 5.50456 0.556641 4.58008C0.934245 3.64909 1.46159 2.8418 2.13867 2.1582C2.82227 1.47461 3.6263 0.94401 4.55078 0.566406C5.47526 0.188802 6.48763 0 7.58789 0C8.68164 0 9.69076 0.192057 10.6152 0.576172C11.5462 0.960286 12.347 1.49089 13.0176 2.16797L12.1094 3.08594C11.556 2.48047 10.8887 2.00846 10.1074 1.66992C9.33268 1.32487 8.48307 1.15234 7.55859 1.15234C6.66016 1.15234 5.83008 1.3151 5.06836 1.64062C4.30664 1.95964 3.64583 2.41211 3.08594 2.99805C2.52604 3.57747 2.08984 4.26107 1.77734 5.04883C1.47135 5.83008 1.31836 6.6862 1.31836 7.61719C1.31836 8.54818 1.47135 9.40755 1.77734 10.1953C2.08984 10.9766 2.52604 11.6602 3.08594 12.2461C3.64583 12.8255 4.30664 13.278 5.06836 13.6035C5.83008 13.9225 6.66016 14.082 7.55859 14.082C8.48307 14.082 9.33268 13.9128 10.1074 13.5742C10.8887 13.2292 11.556 12.7539 12.1094 12.1484L13.0176 13.0566ZM19.8535 15.1367C18.89 15.1367 18.0241 14.9154 17.2559 14.4727C16.4876 14.0299 15.8822 13.4277 15.4395 12.666C14.9967 11.8978 14.7754 11.0286 14.7754 10.0586C14.7754 9.09505 14.9967 8.23242 15.4395 7.4707C15.8822 6.70247 16.4876 6.09701 17.2559 5.6543C18.0241 5.20508 18.89 4.98047 19.8535 4.98047C20.8105 4.98047 21.6699 5.20508 22.4316 5.6543C23.1934 6.09701 23.7956 6.70247 24.2383 7.4707C24.681 8.23242 24.9023 9.09505 24.9023 10.0586C24.9023 11.0221 24.681 11.888 24.2383 12.6562C23.7956 13.4245 23.1934 14.0299 22.4316 14.4727C21.6699 14.9154 20.8105 15.1367 19.8535 15.1367ZM19.8438 14.0527C20.5729 14.0527 21.224 13.877 21.7969 13.5254C22.3763 13.1738 22.832 12.6986 23.1641 12.0996C23.5026 11.4941 23.6719 10.8138 23.6719 10.0586C23.6719 9.30339 23.5026 8.6263 23.1641 8.02734C22.832 7.42188 22.3763 6.94336 21.7969 6.5918C21.224 6.24023 20.5729 6.06445 19.8438 6.06445C19.1146 6.06445 18.4603 6.24023 17.8809 6.5918C17.3014 6.94336 16.8424 7.42188 16.5039 8.02734C16.1719 8.6263 16.0059 9.30339 16.0059 10.0586C16.0059 10.8138 16.1719 11.4941 16.5039 12.0996C16.8424 12.6986 17.3014 13.1738 17.8809 13.5254C18.4603 13.877 19.1146 14.0527 19.8438 14.0527ZM36.25 14.9414H35.0488V9.35547C35.0488 8.33984 34.7754 7.54232 34.2285 6.96289C33.6816 6.37695 32.9297 6.08398 31.9727 6.08398C31.3021 6.08398 30.7096 6.23047 30.1953 6.52344C29.681 6.8099 29.2773 7.2168 28.9844 7.74414C28.6979 8.27148 28.5547 8.89323 28.5547 9.60938V14.9414H27.3535V5.17578H28.418L28.457 7.01172C28.7956 6.35417 29.2871 5.85286 29.9316 5.50781C30.5762 5.15625 31.3216 4.98047 32.168 4.98047C33.431 4.98047 34.4271 5.36133 35.1562 6.12305C35.8854 6.88477 36.25 7.92318 36.25 9.23828V14.9414ZM44.4043 14.7168C43.8118 14.9967 43.2259 15.1367 42.6465 15.1367C42.0996 15.1367 41.6211 15.0163 41.2109 14.7754C40.8073 14.5345 40.4915 14.196 40.2637 13.7598C40.0358 13.3236 39.9219 12.8158 39.9219 12.2363V6.25977H38.2129V5.17578H39.9707V2.73438H41.123V5.17578H44.1113V6.25977H41.123V12.0215C41.123 12.6335 41.2858 13.125 41.6113 13.4961C41.9368 13.8672 42.3665 14.0527 42.9004 14.0527C43.3236 14.0527 43.75 13.929 44.1797 13.6816L44.4043 14.7168ZM47.6562 14.9414H46.4551V5.17578H47.5195L47.5684 7.33398C47.8939 6.57878 48.3757 5.99935 49.0137 5.5957C49.6582 5.18555 50.4102 4.98047 51.2695 4.98047C51.4258 4.98047 51.5853 4.99023 51.748 5.00977C51.9173 5.02279 52.0833 5.04557 52.2461 5.07812L52.0996 6.16211C51.7806 6.09701 51.4616 6.06445 51.1426 6.06445C50.4655 6.06445 49.8633 6.23047 49.3359 6.5625C48.8086 6.89453 48.3952 7.35352 48.0957 7.93945C47.8027 8.51888 47.6562 9.18945 47.6562 9.95117V14.9414ZM58.4082 15.1367C57.4447 15.1367 56.5788 14.9154 55.8105 14.4727C55.0423 14.0299 54.4368 13.4277 53.9941 12.666C53.5514 11.8978 53.3301 11.0286 53.3301 10.0586C53.3301 9.09505 53.5514 8.23242 53.9941 7.4707C54.4368 6.70247 55.0423 6.09701 55.8105 5.6543C56.5788 5.20508 57.4447 4.98047 58.4082 4.98047C59.3652 4.98047 60.2246 5.20508 60.9863 5.6543C61.748 6.09701 62.3503 6.70247 62.793 7.4707C63.2357 8.23242 63.457 9.09505 63.457 10.0586C63.457 11.0221 63.2357 11.888 62.793 12.6562C62.3503 13.4245 61.748 14.0299 60.9863 14.4727C60.2246 14.9154 59.3652 15.1367 58.4082 15.1367ZM58.3984 14.0527C59.1276 14.0527 59.7786 13.877 60.3516 13.5254C60.931 13.1738 61.3867 12.6986 61.7188 12.0996C62.0573 11.4941 62.2266 10.8138 62.2266 10.0586C62.2266 9.30339 62.0573 8.6263 61.7188 8.02734C61.3867 7.42188 60.931 6.94336 60.3516 6.5918C59.7786 6.24023 59.1276 6.06445 58.3984 6.06445C57.6693 6.06445 57.015 6.24023 56.4355 6.5918C55.8561 6.94336 55.3971 7.42188 55.0586 8.02734C54.7266 8.6263 54.5605 9.30339 54.5605 10.0586C54.5605 10.8138 54.7266 11.4941 55.0586 12.0996C55.3971 12.6986 55.8561 13.1738 56.4355 13.5254C57.015 13.877 57.6693 14.0527 58.3984 14.0527ZM67.168 14.9414H65.9082V0.292969H67.168V14.9414ZM78.877 13.7207C77.679 14.6647 76.3509 15.1367 74.8926 15.1367C73.8835 15.1367 72.9785 14.9121 72.1777 14.4629C71.3835 14.0072 70.7585 13.3887 70.3027 12.6074C69.847 11.8262 69.6191 10.9408 69.6191 9.95117C69.6191 8.99414 69.8307 8.14128 70.2539 7.39258C70.6836 6.64388 71.2695 6.05469 72.0117 5.625C72.7539 5.19531 73.597 4.98047 74.541 4.98047C75.498 4.98047 76.3411 5.20833 77.0703 5.66406C77.7995 6.11328 78.3691 6.73828 78.7793 7.53906C79.1895 8.33333 79.3945 9.25456 79.3945 10.3027V10.6055H70.918C70.9961 11.2891 71.2207 11.888 71.5918 12.4023C71.9629 12.9167 72.4414 13.3171 73.0273 13.6035C73.6198 13.89 74.2806 14.0332 75.0098 14.0332C76.2077 14.0332 77.3079 13.6361 78.3105 12.8418L78.877 13.7207ZM70.8789 9.57031H78.2715C78.2129 8.8737 78.0208 8.26497 77.6953 7.74414C77.3698 7.22331 76.9401 6.81641 76.4062 6.52344C75.8789 6.23047 75.2767 6.08398 74.5996 6.08398C73.916 6.08398 73.3008 6.23047 72.7539 6.52344C72.2135 6.81641 71.7773 7.22656 71.4453 7.75391C71.1198 8.27474 70.931 8.88021 70.8789 9.57031ZM86.1426 14.0918L86.4941 12.9785C86.735 13.1999 87.002 13.3887 87.2949 13.5449C87.5944 13.7012 87.9036 13.8216 88.2227 13.9062C88.5482 13.9909 88.877 14.0332 89.209 14.0332C89.873 14.0332 90.4134 13.8704 90.8301 13.5449C91.2467 13.2194 91.4551 12.7962 91.4551 12.2754C91.4551 11.9043 91.3509 11.6016 91.1426 11.3672C90.9342 11.1263 90.6608 10.9212 90.3223 10.752C89.9837 10.5827 89.6257 10.4232 89.248 10.2734C88.8118 10.1042 88.3854 9.91536 87.9688 9.70703C87.5521 9.49219 87.207 9.21549 86.9336 8.87695C86.6667 8.53841 86.5332 8.09245 86.5332 7.53906C86.5332 7.01823 86.6602 6.56901 86.9141 6.19141C87.1745 5.80729 87.5358 5.51107 87.998 5.30273C88.4668 5.08789 89.0072 4.98047 89.6191 4.98047C90.498 4.98047 91.3639 5.19531 92.2168 5.625L91.8457 6.70898C91.6439 6.58529 91.416 6.47786 91.1621 6.38672C90.9082 6.28906 90.6478 6.21419 90.3809 6.16211C90.1139 6.11003 89.86 6.08398 89.6191 6.08398C89.0658 6.08398 88.6198 6.21745 88.2812 6.48438C87.9427 6.74479 87.7734 7.08984 87.7734 7.51953C87.7734 7.79948 87.8483 8.04362 87.998 8.25195C88.1543 8.45378 88.3887 8.64258 88.7012 8.81836C89.0137 8.99414 89.4043 9.17969 89.873 9.375C90.3223 9.55729 90.7617 9.76562 91.1914 10C91.6211 10.2279 91.9759 10.5208 92.2559 10.8789C92.5423 11.237 92.6855 11.7025 92.6855 12.2754C92.6855 12.8353 92.5391 13.3333 92.2461 13.7695C91.9596 14.1992 91.5592 14.5345 91.0449 14.7754C90.5371 15.0163 89.9447 15.1367 89.2676 15.1367C88.1413 15.1367 87.0996 14.7884 86.1426 14.0918ZM95.9082 1.74805C95.6803 1.74805 95.4883 1.66992 95.332 1.51367C95.1823 1.35091 95.1074 1.1556 95.1074 0.927734C95.1074 0.70638 95.1823 0.517578 95.332 0.361328C95.4883 0.205078 95.6803 0.126953 95.9082 0.126953C96.1426 0.126953 96.3379 0.205078 96.4941 0.361328C96.6569 0.517578 96.7383 0.70638 96.7383 0.927734C96.7383 1.1556 96.6569 1.35091 96.4941 1.51367C96.3379 1.66992 96.1426 1.74805 95.9082 1.74805ZM96.5137 14.9414H95.3125V5.17578H96.5137V14.9414ZM115.146 14.9414H113.945V9.63867C113.945 8.51237 113.691 7.63672 113.184 7.01172C112.676 6.38021 111.966 6.06445 111.055 6.06445C110.137 6.06445 109.414 6.38346 108.887 7.02148C108.359 7.65299 108.096 8.52539 108.096 9.63867V14.9414H106.895V9.63867C106.895 8.51237 106.641 7.63672 106.133 7.01172C105.625 6.38021 104.912 6.06445 103.994 6.06445C103.076 6.06445 102.354 6.38346 101.826 7.02148C101.299 7.65299 101.035 8.52539 101.035 9.63867V14.9414H99.834V5.17578H100.83L100.879 7.09961C101.191 6.40299 101.634 5.87565 102.207 5.51758C102.786 5.15951 103.477 4.98047 104.277 4.98047C105.143 4.98047 105.876 5.1888 106.475 5.60547C107.074 6.02214 107.503 6.61784 107.764 7.39258C108.057 6.60482 108.503 6.00586 109.102 5.5957C109.707 5.18555 110.443 4.98047 111.309 4.98047C112.52 4.98047 113.46 5.36784 114.131 6.14258C114.808 6.91732 115.146 8.0013 115.146 9.39453V14.9414ZM119.414 19.8242H118.213V5.17578H119.297L119.346 7.05078C119.769 6.40625 120.332 5.90169 121.035 5.53711C121.738 5.16602 122.516 4.98047 123.369 4.98047C124.326 4.98047 125.182 5.20182 125.938 5.64453C126.699 6.08724 127.298 6.69271 127.734 7.46094C128.177 8.22266 128.398 9.08854 128.398 10.0586C128.398 11.0221 128.177 11.888 127.734 12.6562C127.298 13.4245 126.699 14.0299 125.938 14.4727C125.182 14.9154 124.326 15.1367 123.369 15.1367C122.536 15.1367 121.774 14.9609 121.084 14.6094C120.394 14.2578 119.837 13.7695 119.414 13.1445V19.8242ZM123.301 14.0332C124.043 14.0332 124.704 13.8639 125.283 13.5254C125.869 13.1803 126.325 12.7083 126.65 12.1094C126.982 11.5039 127.148 10.8171 127.148 10.0488C127.148 9.2806 126.982 8.59701 126.65 7.99805C126.318 7.39909 125.863 6.92708 125.283 6.58203C124.704 6.23698 124.043 6.06445 123.301 6.06445C122.598 6.06445 121.956 6.22396 121.377 6.54297C120.804 6.85547 120.342 7.28841 119.99 7.8418C119.639 8.39518 119.447 9.02344 119.414 9.72656V10.3906C119.447 11.0938 119.635 11.722 119.98 12.2754C120.332 12.8223 120.794 13.252 121.367 13.5645C121.947 13.877 122.591 14.0332 123.301 14.0332ZM132.109 14.9414H130.85V0.292969H132.109V14.9414ZM143.818 13.7207C142.62 14.6647 141.292 15.1367 139.834 15.1367C138.825 15.1367 137.92 14.9121 137.119 14.4629C136.325 14.0072 135.7 13.3887 135.244 12.6074C134.788 11.8262 134.561 10.9408 134.561 9.95117C134.561 8.99414 134.772 8.14128 135.195 7.39258C135.625 6.64388 136.211 6.05469 136.953 5.625C137.695 5.19531 138.538 4.98047 139.482 4.98047C140.439 4.98047 141.283 5.20833 142.012 5.66406C142.741 6.11328 143.311 6.73828 143.721 7.53906C144.131 8.33333 144.336 9.25456 144.336 10.3027V10.6055H135.859C135.938 11.2891 136.162 11.888 136.533 12.4023C136.904 12.9167 137.383 13.3171 137.969 13.6035C138.561 13.89 139.222 14.0332 139.951 14.0332C141.149 14.0332 142.249 13.6361 143.252 12.8418L143.818 13.7207ZM135.82 9.57031H143.213C143.154 8.8737 142.962 8.26497 142.637 7.74414C142.311 7.22331 141.882 6.81641 141.348 6.52344C140.82 6.23047 140.218 6.08398 139.541 6.08398C138.857 6.08398 138.242 6.23047 137.695 6.52344C137.155 6.81641 136.719 7.22656 136.387 7.75391C136.061 8.27474 135.872 8.88021 135.82 9.57031ZM146.104 14.0918L146.455 12.9785C146.696 13.1999 146.963 13.3887 147.256 13.5449C147.555 13.7012 147.865 13.8216 148.184 13.9062C148.509 13.9909 148.838 14.0332 149.17 14.0332C149.834 14.0332 150.374 13.8704 150.791 13.5449C151.208 13.2194 151.416 12.7962 151.416 12.2754C151.416 11.9043 151.312 11.6016 151.104 11.3672C150.895 11.1263 150.622 10.9212 150.283 10.752C149.945 10.5827 149.587 10.4232 149.209 10.2734C148.773 10.1042 148.346 9.91536 147.93 9.70703C147.513 9.49219 147.168 9.21549 146.895 8.87695C146.628 8.53841 146.494 8.09245 146.494 7.53906C146.494 7.01823 146.621 6.56901 146.875 6.19141C147.135 5.80729 147.497 5.51107 147.959 5.30273C148.428 5.08789 148.968 4.98047 149.58 4.98047C150.459 4.98047 151.325 5.19531 152.178 5.625L151.807 6.70898C151.605 6.58529 151.377 6.47786 151.123 6.38672C150.869 6.28906 150.609 6.21419 150.342 6.16211C150.075 6.11003 149.821 6.08398 149.58 6.08398C149.027 6.08398 148.581 6.21745 148.242 6.48438C147.904 6.74479 147.734 7.08984 147.734 7.51953C147.734 7.79948 147.809 8.04362 147.959 8.25195C148.115 8.45378 148.35 8.64258 148.662 8.81836C148.975 8.99414 149.365 9.17969 149.834 9.375C150.283 9.55729 150.723 9.76562 151.152 10C151.582 10.2279 151.937 10.5208 152.217 10.8789C152.503 11.237 152.646 11.7025 152.646 12.2754C152.646 12.8353 152.5 13.3333 152.207 13.7695C151.921 14.1992 151.52 14.5345 151.006 14.7754C150.498 15.0163 149.906 15.1367 149.229 15.1367C148.102 15.1367 147.061 14.7884 146.104 14.0918ZM155.693 17.2852H154.795L155.654 13.1836H156.787L155.693 17.2852ZM172.695 13.584C172.227 14.0788 171.673 14.4629 171.035 14.7363C170.404 15.0033 169.72 15.1367 168.984 15.1367C168.021 15.1367 167.155 14.9154 166.387 14.4727C165.625 14.0299 165.023 13.4245 164.58 12.6562C164.137 11.888 163.916 11.0221 163.916 10.0586C163.916 9.08854 164.137 8.22266 164.58 7.46094C165.023 6.69271 165.625 6.08724 166.387 5.64453C167.155 5.20182 168.021 4.98047 168.984 4.98047C169.714 4.98047 170.397 5.11393 171.035 5.38086C171.673 5.64779 172.223 6.02865 172.686 6.52344L171.953 7.29492C171.589 6.91081 171.152 6.61458 170.645 6.40625C170.143 6.19141 169.606 6.08398 169.033 6.08398C168.285 6.08398 167.617 6.25651 167.031 6.60156C166.452 6.9401 165.993 7.40885 165.654 8.00781C165.322 8.60677 165.156 9.28711 165.156 10.0488C165.156 10.8171 165.322 11.5039 165.654 12.1094C165.993 12.7083 166.452 13.1803 167.031 13.5254C167.617 13.8639 168.285 14.0332 169.033 14.0332C169.606 14.0332 170.146 13.929 170.654 13.7207C171.162 13.5059 171.595 13.2064 171.953 12.8223L172.695 13.584ZM179.463 15.1367C178.499 15.1367 177.633 14.9154 176.865 14.4727C176.097 14.0299 175.492 13.4277 175.049 12.666C174.606 11.8978 174.385 11.0286 174.385 10.0586C174.385 9.09505 174.606 8.23242 175.049 7.4707C175.492 6.70247 176.097 6.09701 176.865 5.6543C177.633 5.20508 178.499 4.98047 179.463 4.98047C180.42 4.98047 181.279 5.20508 182.041 5.6543C182.803 6.09701 183.405 6.70247 183.848 7.4707C184.29 8.23242 184.512 9.09505 184.512 10.0586C184.512 11.0221 184.29 11.888 183.848 12.6562C183.405 13.4245 182.803 14.0299 182.041 14.4727C181.279 14.9154 180.42 15.1367 179.463 15.1367ZM179.453 14.0527C180.182 14.0527 180.833 13.877 181.406 13.5254C181.986 13.1738 182.441 12.6986 182.773 12.0996C183.112 11.4941 183.281 10.8138 183.281 10.0586C183.281 9.30339 183.112 8.6263 182.773 8.02734C182.441 7.42188 181.986 6.94336 181.406 6.5918C180.833 6.24023 180.182 6.06445 179.453 6.06445C178.724 6.06445 178.07 6.24023 177.49 6.5918C176.911 6.94336 176.452 7.42188 176.113 8.02734C175.781 8.6263 175.615 9.30339 175.615 10.0586C175.615 10.8138 175.781 11.4941 176.113 12.0996C176.452 12.6986 176.911 13.1738 177.49 13.5254C178.07 13.877 178.724 14.0527 179.453 14.0527ZM195.859 14.9414H194.658V9.35547C194.658 8.33984 194.385 7.54232 193.838 6.96289C193.291 6.37695 192.539 6.08398 191.582 6.08398C190.911 6.08398 190.319 6.23047 189.805 6.52344C189.29 6.8099 188.887 7.2168 188.594 7.74414C188.307 8.27148 188.164 8.89323 188.164 9.60938V14.9414H186.963V5.17578H188.027L188.066 7.01172C188.405 6.35417 188.896 5.85286 189.541 5.50781C190.186 5.15625 190.931 4.98047 191.777 4.98047C193.04 4.98047 194.036 5.36133 194.766 6.12305C195.495 6.88477 195.859 7.92318 195.859 9.23828V14.9414ZM204.014 14.7168C203.421 14.9967 202.835 15.1367 202.256 15.1367C201.709 15.1367 201.23 15.0163 200.82 14.7754C200.417 14.5345 200.101 14.196 199.873 13.7598C199.645 13.3236 199.531 12.8158 199.531 12.2363V6.25977H197.822V5.17578H199.58V2.73438H200.732V5.17578H203.721V6.25977H200.732V12.0215C200.732 12.6335 200.895 13.125 201.221 13.4961C201.546 13.8672 201.976 14.0527 202.51 14.0527C202.933 14.0527 203.359 13.929 203.789 13.6816L204.014 14.7168ZM213.77 14.9414H212.744L212.646 13.3105C212.321 13.8704 211.865 14.3164 211.279 14.6484C210.693 14.974 210.026 15.1367 209.277 15.1367C208.587 15.1367 207.969 15.0033 207.422 14.7363C206.882 14.4629 206.455 14.0918 206.143 13.623C205.83 13.1478 205.674 12.6107 205.674 12.0117C205.674 11.3867 205.843 10.8333 206.182 10.3516C206.52 9.86979 206.986 9.49219 207.578 9.21875C208.171 8.9388 208.844 8.79883 209.6 8.79883C210.127 8.79883 210.651 8.86719 211.172 9.00391C211.693 9.14062 212.158 9.33268 212.568 9.58008V8.91602C212.568 8.32357 212.438 7.81576 212.178 7.39258C211.917 6.9694 211.559 6.64714 211.104 6.42578C210.654 6.19792 210.143 6.08398 209.57 6.08398C209.076 6.08398 208.581 6.17513 208.086 6.35742C207.591 6.5332 207.129 6.79688 206.699 7.14844L206.27 6.11328C206.803 5.74219 207.373 5.46224 207.979 5.27344C208.59 5.07812 209.199 4.98047 209.805 4.98047C210.618 4.98047 211.318 5.14648 211.904 5.47852C212.497 5.81055 212.956 6.28255 213.281 6.89453C213.607 7.5 213.77 8.22266 213.77 9.0625V14.9414ZM209.473 14.0332C210.039 14.0332 210.55 13.9128 211.006 13.6719C211.468 13.4245 211.839 13.0794 212.119 12.6367C212.399 12.1875 212.549 11.6732 212.568 11.0938V10.7617C212.165 10.4557 211.725 10.2246 211.25 10.0684C210.781 9.9056 210.293 9.82422 209.785 9.82422C208.958 9.82422 208.271 10.0228 207.725 10.4199C207.184 10.8171 206.914 11.3281 206.914 11.9531C206.914 12.3438 207.025 12.6986 207.246 13.0176C207.474 13.3301 207.78 13.5775 208.164 13.7598C208.555 13.9421 208.991 14.0332 209.473 14.0332ZM216.143 14.0918L216.494 12.9785C216.735 13.1999 217.002 13.3887 217.295 13.5449C217.594 13.7012 217.904 13.8216 218.223 13.9062C218.548 13.9909 218.877 14.0332 219.209 14.0332C219.873 14.0332 220.413 13.8704 220.83 13.5449C221.247 13.2194 221.455 12.7962 221.455 12.2754C221.455 11.9043 221.351 11.6016 221.143 11.3672C220.934 11.1263 220.661 10.9212 220.322 10.752C219.984 10.5827 219.626 10.4232 219.248 10.2734C218.812 10.1042 218.385 9.91536 217.969 9.70703C217.552 9.49219 217.207 9.21549 216.934 8.87695C216.667 8.53841 216.533 8.09245 216.533 7.53906C216.533 7.01823 216.66 6.56901 216.914 6.19141C217.174 5.80729 217.536 5.51107 217.998 5.30273C218.467 5.08789 219.007 4.98047 219.619 4.98047C220.498 4.98047 221.364 5.19531 222.217 5.625L221.846 6.70898C221.644 6.58529 221.416 6.47786 221.162 6.38672C220.908 6.28906 220.648 6.21419 220.381 6.16211C220.114 6.11003 219.86 6.08398 219.619 6.08398C219.066 6.08398 218.62 6.21745 218.281 6.48438C217.943 6.74479 217.773 7.08984 217.773 7.51953C217.773 7.79948 217.848 8.04362 217.998 8.25195C218.154 8.45378 218.389 8.64258 218.701 8.81836C219.014 8.99414 219.404 9.17969 219.873 9.375C220.322 9.55729 220.762 9.76562 221.191 10C221.621 10.2279 221.976 10.5208 222.256 10.8789C222.542 11.237 222.686 11.7025 222.686 12.2754C222.686 12.8353 222.539 13.3333 222.246 13.7695C221.96 14.1992 221.559 14.5345 221.045 14.7754C220.537 15.0163 219.945 15.1367 219.268 15.1367C218.141 15.1367 217.1 14.7884 216.143 14.0918ZM238.682 13.7207C237.484 14.6647 236.156 15.1367 234.697 15.1367C233.688 15.1367 232.783 14.9121 231.982 14.4629C231.188 14.0072 230.563 13.3887 230.107 12.6074C229.652 11.8262 229.424 10.9408 229.424 9.95117C229.424 8.99414 229.635 8.14128 230.059 7.39258C230.488 6.64388 231.074 6.05469 231.816 5.625C232.559 5.19531 233.402 4.98047 234.346 4.98047C235.303 4.98047 236.146 5.20833 236.875 5.66406C237.604 6.11328 238.174 6.73828 238.584 7.53906C238.994 8.33333 239.199 9.25456 239.199 10.3027V10.6055H230.723C230.801 11.2891 231.025 11.888 231.396 12.4023C231.768 12.9167 232.246 13.3171 232.832 13.6035C233.424 13.89 234.085 14.0332 234.814 14.0332C236.012 14.0332 237.113 13.6361 238.115 12.8418L238.682 13.7207ZM230.684 9.57031H238.076C238.018 8.8737 237.826 8.26497 237.5 7.74414C237.174 7.22331 236.745 6.81641 236.211 6.52344C235.684 6.23047 235.081 6.08398 234.404 6.08398C233.721 6.08398 233.105 6.23047 232.559 6.52344C232.018 6.81641 231.582 7.22656 231.25 7.75391C230.924 8.27474 230.736 8.88021 230.684 9.57031ZM256.963 14.9414H255.762V9.63867C255.762 8.51237 255.508 7.63672 255 7.01172C254.492 6.38021 253.783 6.06445 252.871 6.06445C251.953 6.06445 251.23 6.38346 250.703 7.02148C250.176 7.65299 249.912 8.52539 249.912 9.63867V14.9414H248.711V9.63867C248.711 8.51237 248.457 7.63672 247.949 7.01172C247.441 6.38021 246.729 6.06445 245.811 6.06445C244.893 6.06445 244.17 6.38346 243.643 7.02148C243.115 7.65299 242.852 8.52539 242.852 9.63867V14.9414H241.65V5.17578H242.646L242.695 7.09961C243.008 6.40299 243.451 5.87565 244.023 5.51758C244.603 5.15951 245.293 4.98047 246.094 4.98047C246.96 4.98047 247.692 5.1888 248.291 5.60547C248.89 6.02214 249.32 6.61784 249.58 7.39258C249.873 6.60482 250.319 6.00586 250.918 5.5957C251.523 5.18555 252.259 4.98047 253.125 4.98047C254.336 4.98047 255.277 5.36784 255.947 6.14258C256.624 6.91732 256.963 8.0013 256.963 9.39453V14.9414ZM274.414 14.9414H273.33L273.271 13.0664C272.855 13.7109 272.295 14.2188 271.592 14.5898C270.895 14.9544 270.117 15.1367 269.258 15.1367C268.301 15.1367 267.441 14.9154 266.68 14.4727C265.924 14.0299 265.326 13.4245 264.883 12.6562C264.447 11.888 264.229 11.0221 264.229 10.0586C264.229 9.08854 264.447 8.22266 264.883 7.46094C265.326 6.69271 265.924 6.08724 266.68 5.64453C267.441 5.20182 268.301 4.98047 269.258 4.98047C270.098 4.98047 270.863 5.15951 271.553 5.51758C272.243 5.86914 272.796 6.35742 273.213 6.98242V0.292969H274.414V14.9414ZM269.346 14.0527C270.055 14.0527 270.703 13.89 271.289 13.5645C271.875 13.2324 272.34 12.7832 272.686 12.2168C273.037 11.6439 273.213 10.9961 273.213 10.2734V9.83398C273.213 9.11784 273.04 8.47656 272.695 7.91016C272.35 7.33724 271.885 6.88802 271.299 6.5625C270.719 6.23047 270.068 6.06445 269.346 6.06445C268.61 6.06445 267.946 6.24023 267.354 6.5918C266.768 6.93685 266.305 7.41211 265.967 8.01758C265.628 8.61654 265.459 9.29362 265.459 10.0488C265.459 10.8105 265.628 11.4941 265.967 12.0996C266.305 12.6986 266.768 13.1738 267.354 13.5254C267.939 13.877 268.604 14.0527 269.346 14.0527ZM278.33 1.74805C278.102 1.74805 277.91 1.66992 277.754 1.51367C277.604 1.35091 277.529 1.1556 277.529 0.927734C277.529 0.70638 277.604 0.517578 277.754 0.361328C277.91 0.205078 278.102 0.126953 278.33 0.126953C278.564 0.126953 278.76 0.205078 278.916 0.361328C279.079 0.517578 279.16 0.70638 279.16 0.927734C279.16 1.1556 279.079 1.35091 278.916 1.51367C278.76 1.66992 278.564 1.74805 278.33 1.74805ZM278.936 14.9414H277.734V5.17578H278.936V14.9414ZM289.863 14.9414H288.838L288.74 13.3105C288.415 13.8704 287.959 14.3164 287.373 14.6484C286.787 14.974 286.12 15.1367 285.371 15.1367C284.681 15.1367 284.062 15.0033 283.516 14.7363C282.975 14.4629 282.549 14.0918 282.236 13.623C281.924 13.1478 281.768 12.6107 281.768 12.0117C281.768 11.3867 281.937 10.8333 282.275 10.3516C282.614 9.86979 283.079 9.49219 283.672 9.21875C284.264 8.9388 284.938 8.79883 285.693 8.79883C286.221 8.79883 286.745 8.86719 287.266 9.00391C287.786 9.14062 288.252 9.33268 288.662 9.58008V8.91602C288.662 8.32357 288.532 7.81576 288.271 7.39258C288.011 6.9694 287.653 6.64714 287.197 6.42578C286.748 6.19792 286.237 6.08398 285.664 6.08398C285.169 6.08398 284.674 6.17513 284.18 6.35742C283.685 6.5332 283.223 6.79688 282.793 7.14844L282.363 6.11328C282.897 5.74219 283.467 5.46224 284.072 5.27344C284.684 5.07812 285.293 4.98047 285.898 4.98047C286.712 4.98047 287.412 5.14648 287.998 5.47852C288.59 5.81055 289.049 6.28255 289.375 6.89453C289.701 7.5 289.863 8.22266 289.863 9.0625V14.9414ZM285.566 14.0332C286.133 14.0332 286.644 13.9128 287.1 13.6719C287.562 13.4245 287.933 13.0794 288.213 12.6367C288.493 12.1875 288.643 11.6732 288.662 11.0938V10.7617C288.258 10.4557 287.819 10.2246 287.344 10.0684C286.875 9.9056 286.387 9.82422 285.879 9.82422C285.052 9.82422 284.365 10.0228 283.818 10.4199C283.278 10.8171 283.008 11.3281 283.008 11.9531C283.008 12.3438 283.118 12.6986 283.34 13.0176C283.568 13.3301 283.874 13.5775 284.258 13.7598C284.648 13.9421 285.085 14.0332 285.566 14.0332Z" fill="#1F2937"/>
</svg>
