<svg width="174" height="49" viewBox="0 0 174 49" fill="none" xmlns="http://www.w3.org/2000/svg">
<path d="M42.0938 41.875C39.9271 44.0417 37.3438 45.7292 34.3438 46.9375C31.3646 48.1458 28.1042 48.75 24.5625 48.75C21.0417 48.75 17.7812 48.1458 14.7812 46.9375C11.7812 45.7292 9.17708 44.0312 6.96875 41.8438C4.76042 39.6354 3.04167 37.0521 1.8125 34.0938C0.604167 31.1146 0 27.875 0 24.375C0 20.8542 0.604167 17.6146 1.8125 14.6562C3.04167 11.6979 4.76042 9.125 6.96875 6.9375C9.17708 4.72917 11.7812 3.02083 14.7812 1.8125C17.7812 0.604167 21.0417 0 24.5625 0C28.0833 0 31.3333 0.604167 34.3125 1.8125C37.2917 3.02083 39.8646 4.69792 42.0312 6.84375L36.2812 12.6875C34.8438 10.9792 33.1146 9.64583 31.0938 8.6875C29.0729 7.72917 26.8542 7.25 24.4375 7.25C22.1458 7.25 20.0208 7.67708 18.0625 8.53125C16.125 9.38542 14.4375 10.5833 13 12.125C11.5625 13.6667 10.4375 15.4792 9.625 17.5625C8.83333 19.6458 8.4375 21.9167 8.4375 24.375C8.4375 26.8333 8.83333 29.1042 9.625 31.1875C10.4375 33.25 11.5625 35.0625 13 36.625C14.4375 38.1667 16.125 39.3646 18.0625 40.2188C20.0208 41.0729 22.1458 41.5 24.4375 41.5C26.8542 41.5 29.0729 41.0208 31.0938 40.0625C33.1146 39.1042 34.8438 37.7708 36.2812 36.0625L42.0938 41.875ZM62.875 48.4375C59.7083 48.4375 56.8646 47.7292 54.3438 46.3125C51.8438 44.8958 49.8646 42.9688 48.4062 40.5312C46.9688 38.0729 46.25 35.2917 46.25 32.1875C46.25 29.0833 46.9688 26.3125 48.4062 23.875C49.8646 21.4167 51.8438 19.4792 54.3438 18.0625C56.8646 16.6458 59.7083 15.9375 62.875 15.9375C66.0625 15.9375 68.9062 16.6458 71.4062 18.0625C73.9062 19.4792 75.8646 21.4167 77.2812 23.875C78.7188 26.3125 79.4375 29.0833 79.4375 32.1875C79.4375 35.2917 78.7188 38.0729 77.2812 40.5312C75.8646 42.9688 73.9062 44.8958 71.4062 46.3125C68.9062 47.7292 66.0625 48.4375 62.875 48.4375ZM62.8438 41.5312C64.5104 41.5312 66 41.125 67.3125 40.3125C68.625 39.5 69.6562 38.3854 70.4062 36.9688C71.1771 35.5521 71.5625 33.9479 71.5625 32.1562C71.5625 30.3854 71.1771 28.8021 70.4062 27.4062C69.6562 25.9896 68.625 24.875 67.3125 24.0625C66 23.25 64.5104 22.8438 62.8438 22.8438C61.1979 22.8438 59.7083 23.25 58.375 24.0625C57.0625 24.875 56.0208 25.9896 55.25 27.4062C54.5 28.8021 54.125 30.3854 54.125 32.1562C54.125 33.9479 54.5 35.5521 55.25 36.9688C56.0208 38.3854 57.0625 39.5 58.375 40.3125C59.7083 41.125 61.1979 41.5312 62.8438 41.5312ZM116.156 47.8125H108.469V30.9688C108.469 28.4479 107.833 26.4688 106.562 25.0312C105.312 23.5938 103.573 22.875 101.344 22.875C99.7812 22.875 98.3958 23.2396 97.1875 23.9688C95.9792 24.6771 95.0312 25.6979 94.3438 27.0312C93.6562 28.3646 93.3125 29.9167 93.3125 31.6875V47.8125H85.625V16.5625H91.9688L92.2188 21.5938C93.3438 19.7604 94.875 18.3646 96.8125 17.4062C98.75 16.4271 100.958 15.9375 103.438 15.9375C107.375 15.9375 110.479 17.1354 112.75 19.5312C115.021 21.9271 116.156 25.2083 116.156 29.375V47.8125ZM143.844 47C141.552 47.9583 139.333 48.4375 137.188 48.4375C135 48.4375 133.073 47.9688 131.406 47.0312C129.76 46.0938 128.469 44.7917 127.531 43.125C126.615 41.4375 126.156 39.4792 126.156 37.25V23.4375H120.688V16.5625H126.562V8.75H133.844V16.5625H142.75V23.4375H133.844V35.8438C133.844 37.6146 134.323 39.0104 135.281 40.0312C136.26 41.0521 137.479 41.5625 138.938 41.5625C140.229 41.5625 141.51 41.1667 142.781 40.375L143.844 47ZM157.844 47.8125H149.625V0.9375H157.844V47.8125ZM170.094 8.28125C169.01 8.28125 168.094 7.90625 167.344 7.15625C166.615 6.38542 166.25 5.45833 166.25 4.375C166.25 3.3125 166.615 2.40625 167.344 1.65625C168.094 0.885417 169.01 0.5 170.094 0.5C171.198 0.5 172.125 0.885417 172.875 1.65625C173.625 2.40625 174 3.3125 174 4.375C174 5.45833 173.625 6.38542 172.875 7.15625C172.125 7.90625 171.198 8.28125 170.094 8.28125ZM173.938 47.8125H166.25V16.5625H173.938V47.8125Z" fill="#1F2937"/>
</svg>
