<svg width="20" height="14" viewBox="0 0 20 14" fill="none" xmlns="http://www.w3.org/2000/svg">
<path fill-rule="evenodd" clip-rule="evenodd" d="M1.17033 0.0494059C1.05634 0.0794444 0.885987 0.148164 0.791803 0.202035C0.53733 0.347621 0.209655 0.712919 0.103732 0.969141L0.0126674 1.18939L0.00229345 6.8811C-0.00492149 10.8508 0.00467243 12.633 0.0341172 12.7717C0.116913 13.1622 0.431212 13.5816 0.798901 13.7924C1.18277 14.0126 0.652574 14.0006 9.97552 13.9996C15.6034 13.9989 18.5961 13.9855 18.7085 13.9601C19.2741 13.8329 19.8279 13.3031 19.9083 12.8126C19.9215 12.7321 19.9475 12.6571 19.9661 12.6459C19.9851 12.6345 20 10.1133 20 6.93371C20 3.80327 19.9858 1.25057 19.9685 1.26104C19.9511 1.27147 19.9155 1.20191 19.8894 1.10639C19.7795 0.705343 19.3677 0.259409 18.9581 0.0980615L18.7325 0.00916416L10.0551 0.00193045C2.61925 -0.00423716 1.34798 0.00253966 1.17033 0.0494059ZM1.46416 0.745661C1.40917 0.766866 2.29017 1.58339 5.67924 4.65231C8.03576 6.78622 9.97603 8.52949 9.99097 8.52625C10.0059 8.52302 11.9428 6.7772 14.2952 4.64671C18.1504 1.15505 18.5628 0.770483 18.4769 0.747069C18.3502 0.712538 1.55358 0.711168 1.46416 0.745661ZM0.0121604 6.97628C0.0121604 10.1172 0.0167623 11.3965 0.0224173 9.81917C0.0280332 8.24182 0.0280332 5.67198 0.0224173 4.10842C0.0167623 2.54481 0.0121604 3.83537 0.0121604 6.97628ZM0.759199 1.42733C0.727453 1.61476 0.727687 12.3772 0.759433 12.5647C0.772849 12.644 0.800032 12.7037 0.819844 12.6972C0.839616 12.6908 2.26853 11.4021 3.99516 9.8336L7.13448 6.98165L6.98604 6.84135C6.43607 6.32156 0.844218 1.28456 0.817153 1.28456C0.79855 1.28456 0.772498 1.34883 0.759199 1.42733ZM15.9814 4.12517C14.2556 5.68751 12.8389 6.96981 12.8332 6.97479C12.8189 6.98721 19.0918 12.6834 19.1353 12.6975C19.1546 12.7038 19.1813 12.644 19.1947 12.5647C19.2265 12.3772 19.2267 1.61476 19.195 1.42733C19.1817 1.34883 19.1592 1.28456 19.145 1.28456C19.1308 1.28456 17.7072 2.56282 15.9814 4.12517ZM4.53335 10.3529C1.68415 12.9425 1.39076 13.22 1.47711 13.2435C1.60222 13.2776 18.3523 13.2775 18.4775 13.2434C18.5643 13.2198 18.2759 12.9469 15.4201 10.3513L12.2668 7.48514L12.1067 7.63484C12.0186 7.71715 11.5481 8.14508 11.0611 8.58576C10.1589 9.40217 10.0522 9.47416 9.85712 9.39828C9.80513 9.37807 9.32251 8.96191 8.78467 8.47348C8.24682 7.98506 7.77937 7.56353 7.74591 7.53681C7.69357 7.49497 7.24609 7.88722 4.53335 10.3529Z" fill="#7F7F7F"/>
</svg>
