<svg width="175" height="137" viewBox="0 0 175 137" fill="none" xmlns="http://www.w3.org/2000/svg">
<path d="M145.516 27.0141H28.5326C27.5815 27.0141 35.1902 0 53.2609 0H120.788C138.859 0 146.467 27.0141 145.516 27.0141Z" fill="#2563EB"/>
<path d="M28.5326 109.986H145.516C146.467 109.986 138.859 137 120.788 137H53.2609C35.1902 137 27.5815 109.986 28.5326 109.986Z" fill="#2563EB"/>
<path d="M104.62 94.5493C104.62 86.0239 111.433 79.1127 119.837 79.1127H173.098C174.148 79.1127 175 79.9766 175 81.0422V82.9718C175 91.4972 168.187 98.4084 159.783 98.4084H106.522C105.471 98.4084 104.62 97.5445 104.62 96.4789V94.5493Z" fill="#0EDC92"/>
<path d="M175 54.0282C175 45.5028 168.187 38.5915 159.783 38.5915H106.522C105.471 38.5915 104.62 39.4554 104.62 40.5211V42.4507C104.62 50.9761 111.433 57.8873 119.837 57.8873H173.098C174.148 57.8873 175 57.0234 175 55.9577V54.0282Z" fill="#0EDC92"/>
<path d="M5.70652 40.5211C5.70652 39.4554 6.55815 38.5915 7.6087 38.5915H70.3804C71.431 38.5915 72.2826 39.4554 72.2826 40.5211V48.2394C72.2826 49.3051 71.431 50.169 70.3804 50.169H7.6087C6.55815 50.169 5.70652 49.3051 5.70652 48.2394V40.5211Z" fill="#2563EB"/>
<path d="M5.70652 88.7606C5.70652 87.6949 6.55815 86.831 7.6087 86.831H70.3804C71.431 86.831 72.2826 87.6949 72.2826 88.7606V96.4789C72.2826 97.5445 71.431 98.4084 70.3804 98.4084H7.6087C6.55815 98.4084 5.70652 97.5445 5.70652 96.4789V88.7606Z" fill="#2563EB"/>
<path d="M0 63.676C0 62.6104 0.851632 61.7465 1.90217 61.7465H57.0652C58.1158 61.7465 58.9674 62.6104 58.9674 63.676V71.3944C58.9674 72.46 58.1158 73.3239 57.0652 73.3239H1.90218C0.851634 73.3239 0 72.46 0 71.3944V63.676Z" fill="#2563EB"/>
</svg>
