<svg width="25" height="25" viewBox="0 0 25 25" fill="none" xmlns="http://www.w3.org/2000/svg">
<path fill-rule="evenodd" clip-rule="evenodd" d="M11.9232 0.168461C11.7906 0.257712 11.6091 0.439213 11.5198 0.571733L11.3575 0.812641V6.08575V11.3589H6.08381H0.810158L0.569226 11.5212C-0.172279 12.0208 -0.192273 12.926 0.526453 13.4586C0.726182 13.6066 0.776953 13.6081 6.04275 13.6272L11.3575 13.6463V18.9182V24.1899L11.5198 24.4308C12.0195 25.1723 12.9248 25.1923 13.4574 24.4736C13.6055 24.2739 13.607 24.2231 13.626 18.9592L13.6452 13.6463L18.9586 13.6272C24.223 13.6081 24.2738 13.6066 24.4735 13.4586C25.1923 12.926 25.1723 12.0208 24.4308 11.5212L24.1898 11.3589H18.9175H13.6452L13.626 6.0447C13.607 0.779439 13.6055 0.728673 13.4574 0.528964C13.0654 2.51085e-05 12.4038 -0.155415 11.9232 0.168461Z" fill="#808080"/>
</svg>
