<svg width="20" height="24" viewBox="0 0 20 24" fill="none" xmlns="http://www.w3.org/2000/svg">
<path fill-rule="evenodd" clip-rule="evenodd" d="M8.18889 0.187511C5.71249 0.959972 4.01614 3.51887 4.24746 6.13348C4.51793 9.19198 7.19929 11.4858 10.1799 11.2087C13.1639 10.9313 15.3994 8.1819 15.1289 5.12217C15.003 3.69933 14.5953 2.82916 13.5184 1.68409C12.2162 0.29997 9.90721 -0.348562 8.18889 0.187511ZM7.86708 1.71728C5.67074 2.76607 4.83075 5.20103 5.87329 7.49691C6.89606 9.74915 9.27058 10.6105 11.5095 9.54144C13.7058 8.49265 14.5458 6.05768 13.5033 3.76181C12.4805 1.50956 10.106 0.648202 7.86708 1.71728ZM3.40668 13.4601C1.53974 14.1359 0 16.4295 0 18.5344C0 20.6953 1.53954 22.9404 3.48838 23.6213C4.93363 24.1262 15.0422 24.1262 16.4874 23.6213C17.6994 23.1979 19.2227 21.6913 19.5727 20.57C19.7784 20.3116 19.7784 20.3116 20 19.5689C20 18.9421 20 17.915 19.8919 17.4585C19.7984 17.5179 19.7251 17.0172 19.5905 16.5561C19.2539 15.404 17.7365 13.8841 16.4874 13.4476C15.0917 12.9601 4.76064 12.9699 3.40668 13.4601ZM3.69553 14.7236C0.992599 16.0067 0.392125 19.4972 2.52175 21.545C3.68874 22.6673 4.10623 22.7337 9.98791 22.7337C15.8696 22.7337 16.2871 22.6673 17.4541 21.545C19.6229 19.4595 18.9333 15.8512 16.1369 14.6533C15.526 14.3917 14.4267 14.336 9.94437 14.3397C5.06627 14.3438 4.41066 14.3839 3.69553 14.7236Z" fill="#808080"/>
</svg>
