<svg width="25" height="29" viewBox="0 0 25 29" fill="none" xmlns="http://www.w3.org/2000/svg">
<path fill-rule="evenodd" clip-rule="evenodd" d="M16.199 0.026644C15.7654 0.109875 15.1122 0.318322 14.3269 0.62405C13.0906 1.10536 13.0164 1.10791 11.792 0.711758C10.5355 0.305233 9.75505 0.149309 8.98254 0.150386C7.7061 0.152199 6.66803 0.582746 5.64856 1.53319C5.10829 2.03683 5.00869 2.28879 5.20232 2.66188C5.2515 2.75673 6.02003 3.9316 6.91011 5.27282C7.80024 6.61398 8.52107 7.72964 8.51203 7.75202C8.50294 7.77446 8.2392 7.99769 7.92589 8.24806C7.24497 8.79221 5.95112 10.0084 5.29323 10.7227C2.94791 13.2691 1.17173 16.4758 0.473355 19.4247C0.0583911 21.1769 -0.11029 23.2315 0.0744801 24.2827C0.278466 25.4432 0.741471 26.3733 1.53064 27.2077C2.37921 28.105 3.3461 28.6426 4.55324 28.8883C5.0831 28.9961 5.36088 29 12.5036 29C19.6464 29 19.9242 28.9961 20.454 28.8883C22.1966 28.5336 23.6394 27.4324 24.4274 25.8555C24.8875 24.9346 25.0377 24.1287 24.9922 22.8242C24.875 19.4598 23.8427 16.4208 21.7688 13.3339C20.5402 11.5053 18.7388 9.5571 17.0207 8.19888C16.6939 7.94052 16.4264 7.71349 16.4264 7.69434C16.4264 7.67525 17.1231 6.37392 17.9746 4.80261C19.4313 2.11422 19.5227 1.92821 19.5238 1.65059C19.5248 1.37676 19.5065 1.3367 19.269 1.0942C18.9075 0.724902 18.3068 0.340872 17.8293 0.173899C17.4277 0.033443 16.5682 -0.044179 16.199 0.026644ZM16.0285 1.54702C15.8878 1.58713 15.4145 1.76096 14.9767 1.93331C13.8267 2.38618 13.5813 2.4493 12.9584 2.45264C12.4484 2.45536 12.3646 2.43752 11.4519 2.13196C10.16 1.69943 9.76983 1.61812 8.97879 1.61671C8.42147 1.61574 8.27035 1.63608 7.9546 1.75456C7.59586 1.88918 7.00897 2.23831 6.87895 2.3944C6.82921 2.45423 7.15725 2.98631 8.38031 4.82929L9.94539 7.1877L12.4866 7.17291L15.0277 7.15818L16.1278 5.11848C16.7328 3.99664 17.3819 2.79174 17.5703 2.44086L17.9127 1.803L17.5534 1.63353C17.2427 1.48707 17.1323 1.4648 16.7391 1.46911C16.489 1.47189 16.1692 1.50696 16.0285 1.54702ZM8.95036 9.29641C5.5589 12.003 3.08191 15.5559 2.04714 19.1981C1.55866 20.9173 1.33529 23.2096 1.55537 24.2443C1.86112 25.6816 2.89969 26.8338 4.34533 27.3395L4.80015 27.4986H12.5036H20.2071L20.6619 27.3395C21.8127 26.937 22.6301 26.2072 23.1349 25.1319C23.4712 24.4156 23.5568 23.8867 23.5129 22.7959C23.3981 19.9369 22.5531 17.2957 20.9241 14.7039C19.6041 12.6037 17.5974 10.4321 15.6082 8.95136L15.2163 8.65963L12.4813 8.66042L9.74629 8.66122L8.95036 9.29641ZM12.269 12.9478C11.9954 13.1169 11.9351 13.2965 11.9351 13.9416V14.5318L11.4945 14.6C10.338 14.779 9.49615 15.5988 9.30819 16.729C9.156 17.6446 9.60718 18.6817 10.3795 19.1915C10.9474 19.5664 11.1541 19.6094 12.5654 19.6462L13.8495 19.6797L14.0842 19.8418C14.6331 20.221 14.7076 21.1003 14.2274 21.5331C13.9498 21.7833 13.782 21.8044 12.0686 21.8044C10.558 21.8044 10.4186 21.8128 10.2036 21.9165C9.66699 22.1754 9.62821 22.8599 10.1328 23.1665C10.2908 23.2625 10.4218 23.2771 11.125 23.2773L11.9351 23.2775V23.8752C11.9351 24.5529 12.0008 24.7452 12.2932 24.9229C12.5245 25.0634 12.7669 25.0635 12.998 24.9231C13.3177 24.7288 13.3815 24.5683 13.4045 23.9003L13.4251 23.2984L13.8504 23.2373C15.339 23.0236 16.3205 21.5558 15.9438 20.1068C15.6924 19.1401 14.8665 18.3965 13.8681 18.2378C13.6648 18.2056 13.0653 18.1789 12.5358 18.1787C11.6714 18.1783 11.5476 18.1659 11.3239 18.0581C10.9435 17.8745 10.7696 17.5727 10.7696 17.0958C10.7696 16.6691 10.8402 16.5325 11.2191 16.2268L11.4337 16.0536L13.2052 16.0252C14.4708 16.005 15.0121 15.9767 15.1006 15.9262C15.4467 15.7288 15.5713 15.2071 15.3474 14.8936C15.1465 14.6125 14.926 14.5521 14.1011 14.5521H13.3564V13.9518C13.3564 13.2899 13.2955 13.1113 13.013 12.945C12.8128 12.8272 12.4618 12.8284 12.269 12.9478Z" fill="white"/>
</svg>
