<svg width="21" height="25" viewBox="0 0 21 25" fill="none" xmlns="http://www.w3.org/2000/svg">
<path fill-rule="evenodd" clip-rule="evenodd" d="M8.59834 0.195324C5.99811 0.999971 4.21695 3.66549 4.45983 6.38904C4.74383 9.57498 7.55925 11.9644 10.6889 11.6757C13.8221 11.3868 16.1693 8.52282 15.8853 5.33559C15.7532 3.85347 15.3251 2.94704 14.1944 1.75426C12.827 0.312468 10.4026 -0.363085 8.59834 0.195324ZM3.57701 14.0209C1.61672 14.7248 0 17.114 0 19.3067C0 21.5576 1.61651 23.8962 3.6628 24.6055C5.18031 25.1315 15.7943 25.1315 17.3118 24.6055C18.5844 24.1645 20.1839 22.5951 20.5514 21.427C20.7673 21.1579 20.7673 21.1579 21 20.3843C21 19.7314 21 18.6614 20.8865 18.1859C20.7883 18.2478 20.7114 17.7262 20.57 17.2459C20.2166 16.0459 18.6234 14.4626 17.3118 14.0079C15.8463 13.5001 4.99867 13.5103 3.57701 14.0209Z" fill="#808080"/>
</svg>
