<svg width="20" height="20" viewBox="0 0 20 20" fill="none" xmlns="http://www.w3.org/2000/svg">
<path fill-rule="evenodd" clip-rule="evenodd" d="M3.16412 0.0669438C2.4731 0.253068 1.93936 0.863966 1.83622 1.58675C1.81478 1.7371 1.79689 2.14575 1.79646 2.49488L1.79568 3.12967L0.899106 4.92574C-0.10104 6.92929 -0.0607332 6.8092 0.0638515 7.41338C0.20399 8.09313 0.451132 8.54707 0.954343 9.04902C1.16773 9.26189 1.40688 9.45708 1.55236 9.53717L1.79474 9.67062L1.79599 13.9078C1.79673 16.5197 1.81221 18.2499 1.83622 18.4184C1.94069 19.1503 2.47614 19.7562 3.18088 19.9401C3.38261 19.9928 4.20352 20 9.98178 20C15.76 20 16.5809 19.9928 16.7827 19.9401C17.4874 19.7562 18.0229 19.1503 18.1273 18.4184C18.1513 18.2501 18.1671 16.5157 18.1683 13.9078L18.1702 9.67062L18.4127 9.53393C18.7459 9.34609 19.3234 8.76612 19.5248 8.41699C19.7058 8.10324 19.8767 7.62715 19.9103 7.34297C19.9227 7.2378 19.948 7.15173 19.9664 7.15173C19.9849 7.15173 20 7.03457 20 6.89137C20 6.7482 19.99 6.641 19.9779 6.65322C19.9657 6.66541 19.5534 5.86846 19.0618 4.88219L18.1679 3.08898L18.1671 2.47453C18.1667 2.13661 18.1488 1.7371 18.1273 1.58675C18.0229 0.854867 17.4874 0.248889 16.7827 0.0649912C16.4459 -0.022916 3.49067 -0.0210415 3.16412 0.0669438ZM3.49137 0.939494C3.28913 0.974758 3.12654 1.06251 2.97424 1.21856C2.78175 1.41578 2.73123 1.62369 2.73123 2.21854V2.7388H9.98178H17.2323V2.21854C17.2323 1.4744 17.1277 1.23258 16.7081 1.0076L16.5501 0.922857L10.0987 0.917585C6.55044 0.914695 3.57713 0.924537 3.49137 0.939494ZM1.88471 5.00384L1.217 6.37068H3.0064H4.79577L4.81541 6.28281C4.82621 6.23446 4.94148 5.65016 5.07156 4.98432C5.20168 4.31847 5.31714 3.74295 5.32817 3.70535C5.34704 3.64114 5.26335 3.63701 3.9503 3.63701H2.55239L1.88471 5.00384ZM6.25909 3.72487C6.23617 3.8211 5.7328 6.34065 5.7328 6.3592C5.7328 6.36552 6.58357 6.37068 7.6234 6.37068H9.514V5.00384V3.63701H7.89701H6.28002L6.25909 3.72487ZM10.4496 5.00384V6.37068H12.3402C13.4266 6.37068 14.2308 6.3558 14.2308 6.33573C14.2308 6.30421 13.7529 3.93619 13.7039 3.72487L13.6835 3.63701H12.0665H10.4496V5.00384ZM14.64 3.72487C14.6629 3.8211 15.1663 6.34065 15.1663 6.3592C15.1663 6.36552 15.9732 6.37068 16.9594 6.37068C17.9457 6.37068 18.7526 6.36197 18.7526 6.35131C18.7526 6.34065 18.4501 5.72557 18.0804 4.98447L17.4082 3.63701H16.0137H14.6191L14.64 3.72487ZM0.0153196 6.93694C0.0155145 7.08729 0.0225312 7.144 0.0309901 7.063C0.0394101 6.98197 0.0392932 6.85895 0.0306783 6.78963C0.0220634 6.72028 0.0151637 6.78659 0.0153196 6.93694ZM0.996443 7.39581C1.01048 7.46559 1.08232 7.65254 1.15607 7.81121C1.25887 8.03236 1.36053 8.1694 1.59165 8.39832C2.07124 8.87336 2.54389 9.07135 3.19589 9.07038C3.70893 9.06964 4.10248 8.93252 4.53412 8.60429L4.71929 8.46346V7.86619V7.26889H2.8451H0.970871L0.996443 7.39581ZM5.61586 7.91755V8.56621L5.74235 8.80599C5.90451 9.11345 6.34571 9.55643 6.64887 9.71615C7.1881 10.0003 7.84131 10.065 8.38159 9.88775C8.72689 9.77446 9.18613 9.47762 9.3769 9.2444L9.514 9.07678V8.17283V7.26889H7.56493H5.61586V7.91755ZM10.4496 8.17283V9.07678L10.5867 9.2444C10.7774 9.47762 11.2367 9.77446 11.582 9.88775C12.1224 10.0651 12.7761 10.0003 13.3147 9.71595C13.6215 9.554 14.0632 9.11127 14.2226 8.80599L14.3477 8.56621V7.91755V7.26889H12.3986H10.4496V8.17283ZM15.2443 7.86764V8.46639L15.4684 8.6344C15.8772 8.94072 16.2745 9.07214 16.7884 9.07096C17.423 9.06952 17.8979 8.86781 18.3719 8.39832C18.603 8.1694 18.7047 8.03236 18.8075 7.81121C18.8812 7.65254 18.9531 7.46559 18.9671 7.39581L18.9927 7.26889H17.1185H15.2443V7.86764ZM4.81775 9.53706C4.33699 9.84307 3.64044 10.0253 3.07485 9.99295L2.73123 9.97331V14.1401C2.73123 18.7365 2.72024 18.5263 2.97455 18.7869C3.04215 18.8562 3.16853 18.9509 3.25542 18.9975L3.41341 19.0823L6.69759 19.0935L9.98178 19.1047V15.6333V12.162L10.0709 12.0293C10.2285 11.7947 10.2191 11.7955 12.7853 11.8076C15.3167 11.8195 15.1916 11.8082 15.3551 12.0395C15.4139 12.1227 15.4206 12.444 15.4302 15.6217L15.4408 19.1125L15.9955 19.0936C16.6096 19.0725 16.7536 19.0281 16.989 18.7869C17.2433 18.5263 17.2323 18.7365 17.2323 14.1401V9.97331L16.8887 9.99295C16.3231 10.0253 15.6266 9.84307 15.1458 9.53706L14.9519 9.41365L14.882 9.50308C14.3686 10.1596 13.9235 10.5065 13.3267 10.7153C12.9152 10.8593 12.6765 10.9008 12.2586 10.9008C11.4539 10.9008 10.7037 10.6203 10.1561 10.1145L9.98178 9.95355L9.80749 10.1145C9.25984 10.6203 8.50964 10.9008 7.70491 10.9008C7.28703 10.9008 7.04831 10.8593 6.63682 10.7153C6.04001 10.5065 5.59492 10.1596 5.08158 9.50308L5.01165 9.41365L4.81775 9.53706ZM4.88527 11.8258C4.75842 11.8513 4.57798 12.048 4.54921 12.192C4.53557 12.2605 4.52438 13.132 4.52438 14.1287C4.52438 16.0628 4.52781 16.1006 4.718 16.2705C4.80302 16.3464 4.86055 16.3486 6.80814 16.3486H8.81085L8.93828 16.221L9.06571 16.0933L9.07776 14.1902C9.08591 12.9032 9.07612 12.2403 9.04755 12.1426C9.02198 12.0552 8.95563 11.9627 8.87958 11.9083L8.75386 11.8185L6.86326 11.8133C5.82343 11.8105 4.93333 11.8161 4.88527 11.8258ZM5.45993 14.0835V15.4309H6.80479H8.14965V14.0835V12.7362H6.80479H5.45993V14.0835ZM10.8879 15.9093L10.8978 19.0823L12.7007 19.0924L14.5036 19.1026V15.9194V12.7362H12.6908H10.8779L10.8879 15.9093Z" fill="#808080"/>
</svg>
