<svg width="25" height="25" viewBox="0 0 25 25" fill="none" xmlns="http://www.w3.org/2000/svg">
<path fill-rule="evenodd" clip-rule="evenodd" d="M11.5353 0.0971923C10.9965 0.257272 10.6408 0.428094 10.291 0.694665C9.60657 1.21626 1.01742 8.6176 0.83717 8.84108C0.507616 9.24973 0.256278 9.75039 0.125294 10.2588C0.00456421 10.7276 0 10.9448 0 16.1884C0 19.8307 0.0224454 21.7533 0.0677739 21.9998C0.264968 23.0717 1.09614 24.131 2.12575 24.6225C2.88308 24.984 3.17143 25.0163 5.4498 24.9949L7.42962 24.9763L7.69578 24.79C7.8422 24.6875 8.02746 24.4806 8.10742 24.33L8.25291 24.0563V20.5943C8.25291 16.7314 8.27073 16.5159 8.6568 15.7085C9.06801 14.8484 9.7073 14.1988 10.5658 13.7685C12.2505 12.924 14.3946 13.3903 15.5694 14.8566C15.7402 15.0698 15.9788 15.4508 16.0995 15.7033C16.4883 16.5164 16.5058 16.7276 16.5058 20.5943V24.0563L16.6513 24.33C16.7313 24.4806 16.9165 24.6875 17.063 24.79L17.3292 24.9763L19.434 24.9948C21.8317 25.016 22.1104 24.9865 22.8741 24.6313C23.8974 24.1552 24.7622 23.042 24.9455 21.9647C24.9927 21.6866 25.0084 19.8335 24.9958 16.0036L24.9776 10.4462L24.8236 10.0115C24.739 9.77243 24.5268 9.3677 24.3523 9.11206C24.0676 8.69528 23.5577 8.23852 19.4107 4.68498C16.8673 2.50565 14.6532 0.637352 14.4904 0.533282C13.9474 0.186174 13.3677 0.023921 12.5982 0.00374031C12.0759 -0.00998255 11.8202 0.0124955 11.5353 0.0971923Z" fill="#2563EB"/>
</svg>
