<svg width="25" height="25" viewBox="0 0 25 25" fill="none" xmlns="http://www.w3.org/2000/svg">
<path fill-rule="evenodd" clip-rule="evenodd" d="M9.42889 1.07334C9.0059 2.13462 8.99917 2.14727 8.82704 2.20166C8.73129 2.23193 8.41608 2.35674 8.12656 2.4791L7.60017 2.70151L6.54826 2.2481L5.4964 1.79468L3.64555 3.64849L1.7947 5.50234L2.24421 6.55571L2.69373 7.60913L2.47328 8.13804C2.35204 8.42896 2.22515 8.74668 2.19132 8.84404C2.13058 9.01875 2.11561 9.02671 1.06487 9.44687L0 9.87266V12.5V15.1273L1.06487 15.5531C2.11561 15.9733 2.13058 15.9812 2.19132 16.156C2.22515 16.2533 2.35204 16.571 2.47328 16.862L2.69373 17.3909L2.24421 18.4443L1.7947 19.4977L3.64409 21.35L5.49343 23.2024L6.54792 22.7509L7.60241 22.2995L8.12768 22.5214C8.41657 22.6435 8.73129 22.7681 8.82704 22.7983C8.99917 22.8527 9.0059 22.8654 9.42889 23.9267L9.85666 25H12.4798H15.1028L15.5279 23.9334C15.9474 22.8809 15.9554 22.866 16.1298 22.8052C16.227 22.7713 16.5429 22.6437 16.8318 22.5215L17.3571 22.2995L18.4116 22.7509L19.4661 23.2024L21.3154 21.35L23.1648 19.4977L22.7141 18.4415L22.2633 17.3853L22.4851 16.8591C22.607 16.5698 22.7344 16.2537 22.768 16.1566C22.8283 15.9829 22.8453 15.9738 23.9066 15.5463L24.9839 15.1123L24.9965 12.4688C25.0065 10.3673 24.9965 9.82656 24.9478 9.83203C24.914 9.83579 24.4238 9.65513 23.8583 9.43057C22.8435 9.02754 22.8294 9.01992 22.7685 8.84463C22.7346 8.74692 22.607 8.43023 22.4851 8.14087L22.2633 7.61475L22.7141 6.55855L23.1648 5.50234L21.3154 3.65L19.4661 1.79761L18.4116 2.24907L17.3571 2.70054L16.8318 2.47847C16.5429 2.3563 16.227 2.22866 16.1298 2.19478C15.9554 2.13403 15.9474 2.11914 15.5279 1.0666L15.1028 0H12.4798H9.85666L9.42889 1.07334ZM11.7485 6.30024C9.46745 6.56973 7.49063 8.11558 6.66146 10.2783C6.36628 11.0483 6.27307 11.5814 6.27307 12.5C6.27307 13.4186 6.36628 13.9517 6.66146 14.7217C7.93741 18.0497 11.7343 19.6407 14.9888 18.211C16.8047 17.4134 18.1587 15.7371 18.579 13.7663C18.7326 13.0464 18.7326 11.9536 18.579 11.2337C17.903 8.06406 14.9391 5.92334 11.7485 6.30024ZM0.022717 12.5C0.022717 13.9636 0.0289569 14.5624 0.036513 13.8306C0.0441179 13.0987 0.0441179 11.9012 0.036513 11.1694C0.0289569 10.4376 0.022717 11.0364 0.022717 12.5Z" fill="#808080"/>
</svg>
