<svg width="50" height="33" viewBox="0 0 50 33" fill="none" xmlns="http://www.w3.org/2000/svg">
<path fill-rule="evenodd" clip-rule="evenodd" d="M23.0691 0.155439C20.0569 0.916075 17.5124 3.51189 16.8016 6.54967C16.525 7.73119 16.6138 9.74334 16.9922 10.8729C17.382 12.036 18.1749 13.3211 19.0525 14.2118L19.8101 14.9807L18.8768 15.2984L17.9437 15.6161L17.2276 14.951C16.4859 14.2623 15.5208 13.6542 14.7238 13.3737L14.2636 13.2118L14.7682 12.638C16.1178 11.1037 16.7084 8.69625 16.2013 6.79699C15.5921 4.51546 13.5553 2.484 11.3705 1.97921C9.81183 1.61915 7.83234 1.92729 6.55677 2.72843C3.36561 4.73292 2.37899 8.79747 4.3491 11.8226C4.61542 12.2314 4.98151 12.7025 5.16268 12.8692L5.49213 13.1724L4.70169 13.5069C3.66243 13.9467 2.959 14.4447 2.10942 15.3421C1.30372 16.193 0.827474 16.9642 0.386364 18.1319C0.0969168 18.8984 0.0687852 19.1619 0.0200231 21.5671C-0.0242379 23.7565 -0.00223265 24.2187 0.158432 24.4648C0.531775 25.0362 3.6608 26.2989 5.77008 26.7293C7.40261 27.0624 7.86535 26.9766 8.10166 26.2969C8.24857 25.874 8.14117 25.4483 7.81996 25.1808C7.70956 25.0889 7.09878 24.909 6.46288 24.7812C5.21444 24.5301 3.69756 24.0577 2.64955 23.5935L1.99314 23.3027L1.99501 21.6968C1.99789 19.1312 2.40724 17.8945 3.66681 16.6456C5.05415 15.27 5.88623 15.0053 9.03364 14.9395C12.2428 14.8721 13.4354 15.0068 14.5568 15.5629C15.0393 15.8022 15.591 16.1624 15.7828 16.3634L16.1317 16.7289L15.5759 17.1858C14.2886 18.2439 13.0995 20.124 12.5491 21.9721C12.2341 23.0298 12.2091 23.2961 12.1517 26.2035C12.0967 28.9881 12.1123 29.34 12.3047 29.6346C12.6725 30.1977 15.7611 31.5193 18.2492 32.1784C20.959 32.8961 21.7998 32.9985 24.9989 33C27.5345 33.0011 28.1424 32.9622 29.4351 32.7164C32.0296 32.2232 33.9612 31.5987 36.3962 30.4664C37.9782 29.7306 37.9172 29.9073 37.8456 26.2679C37.7948 23.6877 37.7452 23.074 37.5189 22.2229C37.016 20.3318 35.8316 18.382 34.5026 17.2581L33.8709 16.7238L34.2173 16.3608C34.4078 16.1613 34.9585 15.8022 35.441 15.5629C36.5624 15.0068 37.7549 14.8721 40.9641 14.9395C44.1115 15.0053 44.9436 15.27 46.3309 16.6456C47.5905 17.8945 47.9998 19.1312 48.0027 21.6968L48.0046 23.3027L47.2924 23.6186C46.2334 24.0884 44.8563 24.5168 43.5359 24.7875C42.2997 25.0408 42.0445 25.1699 41.8699 25.6305C41.7347 25.9873 41.95 26.6377 42.258 26.8031C42.9953 27.199 46.2349 26.389 48.793 25.1694C50.0601 24.5653 50.0397 24.6276 49.9777 21.5671C49.9289 19.1619 49.9008 18.8984 49.6114 18.1319C49.1703 16.9642 48.694 16.193 47.8883 15.3421C47.0387 14.4447 46.3353 13.9467 45.296 13.5069L44.5056 13.1724L44.835 12.8692C45.0162 12.7025 45.3823 12.2314 45.6486 11.8226C46.9925 9.75914 46.9917 6.96328 45.6465 4.90675C44.3512 2.92633 42.4243 1.84138 40.2083 1.84464C38.3053 1.8474 36.9202 2.42669 35.564 3.78705C34.2372 5.11794 33.629 6.55669 33.629 8.36466C33.629 9.94914 34.1754 11.4263 35.1933 12.5935L35.7329 13.2122L35.2733 13.3739C34.477 13.6542 33.5117 14.2624 32.7702 14.951L32.054 15.6161L31.1209 15.2984L30.1877 14.9807L30.9452 14.2118C31.8431 13.3006 32.6231 12.0239 33.0237 10.8102C33.2698 10.0645 33.3121 9.68677 33.3042 8.30195C33.2962 6.87863 33.2537 6.55481 32.9692 5.75166C32.4962 4.41613 31.9363 3.54086 30.8721 2.47347C29.1689 0.765077 27.5848 0.0701581 25.2489 0.00707488C24.2702 -0.0193875 23.5741 0.0280188 23.0691 0.155439ZM23.7556 2.10525C23.45 2.16545 22.7843 2.41264 22.2762 2.65469C19.8238 3.82292 18.3096 6.6263 18.7143 9.2492C19.2396 12.6531 22.5145 15.1517 25.8238 14.6735C29.2668 14.176 31.8013 10.8366 31.2834 7.48012C30.7323 3.9087 27.2452 1.41898 23.7556 2.10525ZM8.38823 4.09281C7.06328 4.58569 5.91486 5.79305 5.53965 7.08757C5.28021 7.98265 5.35885 9.34189 5.71681 10.1519C6.08053 10.9749 7.13479 12.0545 7.98063 12.47C8.58715 12.7679 8.83497 12.8148 9.80758 12.8157C10.7662 12.8167 11.038 12.7674 11.6424 12.4833C12.6359 12.0161 13.4206 11.2454 13.9024 10.2639C14.2644 9.52612 14.3087 9.31956 14.3087 8.36729C14.3087 7.47221 14.2547 7.18301 13.9761 6.58692C13.5271 5.62625 12.7243 4.78447 11.8127 4.31843C10.8131 3.80762 9.40473 3.71481 8.38823 4.09281ZM39.0023 3.96C37.6904 4.3933 36.5961 5.35774 36.0216 6.58692C35.7433 7.18263 35.689 7.47234 35.689 8.36466C35.689 9.25886 35.743 9.54631 36.0241 10.1478C36.4933 11.1521 37.3428 12.0191 38.2854 12.4557C38.9623 12.7693 39.2128 12.8167 40.1901 12.8157C41.1628 12.8148 41.4106 12.7679 42.0171 12.47C42.8548 12.0584 43.9086 10.9846 44.2918 10.1519C44.5131 9.67097 44.5661 9.32621 44.5661 8.36466C44.5662 7.32209 44.5237 7.08657 44.2264 6.47931C43.7895 5.58674 42.8854 4.68401 42.0078 4.26362C41.4748 4.00841 41.0851 3.92338 40.3152 3.89441C39.765 3.87371 39.1743 3.90331 39.0023 3.96ZM20.4464 16.9737C18.0934 17.4796 16.058 19.0675 15.0105 21.2142C14.3581 22.5511 14.2462 23.2551 14.2462 26.0211V28.529L15.4027 29.0329C18.3557 30.3195 21.875 31.0646 24.9989 31.0646C28.1313 31.0646 31.9961 30.2346 34.7825 28.9634L35.7515 28.5214L35.7497 26.0619C35.7477 23.3225 35.6184 22.4957 34.9926 21.2208C33.9143 19.0238 31.8953 17.4687 29.4682 16.9659C28.1466 16.692 21.7302 16.6975 20.4464 16.9737Z" fill="#38A47F"/>
</svg>
