<svg width="20" height="23" viewBox="0 0 20 23" fill="none" xmlns="http://www.w3.org/2000/svg">
<path fill-rule="evenodd" clip-rule="evenodd" d="M9.38372 0.0130056C6.40213 0.313148 3.93648 2.24955 2.99845 5.02766C2.74918 5.76595 2.69544 6.13058 2.66823 7.26807L2.6422 8.35767H2.20957C1.21298 8.35767 0.452194 8.85179 0.125419 9.71123L0.0163137 9.9982L0.00295286 15.5315C-0.00631595 19.37 0.00600952 21.1431 0.043134 21.3207C0.163086 21.8948 0.614102 22.4959 1.11541 22.7499C1.63022 23.0108 1.24482 22.9999 10 22.9999C18.7552 22.9999 18.3698 23.0108 18.8846 22.7499C19.3859 22.4959 19.8369 21.8948 19.9569 21.3207C19.994 21.1431 20.0063 19.37 19.997 15.5315L19.9837 9.9982L19.8746 9.71123C19.5478 8.85179 18.787 8.35767 17.7904 8.35767H17.3578L17.3318 7.26807C17.3035 6.08504 17.2505 5.75169 16.957 4.91194C16.1026 2.46727 13.9553 0.624014 11.3853 0.129164C10.8967 0.0350914 9.79781 -0.0286685 9.38372 0.0130056ZM9.0889 1.11235C6.42116 1.52777 4.37063 3.4769 3.8109 6.1295C3.75943 6.37338 3.71826 6.86789 3.70185 7.43947L3.67552 8.35767H4.73719H5.79886L5.821 7.41499C5.84555 6.37098 5.89781 6.12466 6.23904 5.44391C7.11977 3.68689 9.13346 2.7753 11.0555 3.26354C12.466 3.62191 13.5716 4.68193 14.0448 6.1295C14.1408 6.42348 14.16 6.60658 14.179 7.41499L14.2011 8.35767H15.2628H16.3245L16.2982 7.43947C16.2697 6.44845 16.203 6.02603 15.9604 5.3017C15.3946 3.61182 14.0803 2.21738 12.4058 1.53046C11.6525 1.22146 11.0704 1.1052 10.1726 1.08458C9.7387 1.07459 9.25105 1.08708 9.0889 1.11235ZM9.37401 4.24648C8.47183 4.42356 7.60268 5.09225 7.18761 5.92868C6.93656 6.43469 6.84466 6.91602 6.84466 7.72536V8.35767H10.0058H13.1669L13.1438 7.5619C13.1236 6.86994 13.1034 6.71363 12.9885 6.36383C12.5641 5.07183 11.3271 4.18238 9.97979 4.20055C9.76044 4.20348 9.4878 4.22415 9.37401 4.24648ZM1.80125 9.45584C1.53457 9.52705 1.30941 9.71554 1.17038 9.98399C1.07942 10.1597 1.07636 10.3486 1.07739 15.6646C1.07843 20.9061 1.08272 21.1727 1.16949 21.3594C1.27963 21.5965 1.43572 21.7457 1.67937 21.8468C1.84168 21.9142 2.76619 21.9226 10 21.9226C17.2338 21.9226 18.1583 21.9142 18.3206 21.8468C18.5643 21.7457 18.7204 21.5965 18.8305 21.3594C18.9173 21.1727 18.9216 20.9061 18.9226 15.6646C18.9236 10.3168 18.9211 10.1606 18.828 9.97934C18.6858 9.70251 18.429 9.50227 18.1363 9.43993C17.742 9.35594 2.11831 9.37113 1.80125 9.45584ZM9.37026 11.5627C8.48948 11.7745 7.72909 12.5073 7.46562 13.3983C7.41869 13.557 7.38699 13.8462 7.38699 14.1155C7.38699 14.8662 7.60599 15.3901 8.15309 15.9481L8.41715 16.2175L8.43209 17.4662C8.44693 18.7098 8.44752 18.716 8.57763 18.9598C8.88158 19.5294 9.38136 19.8378 10 19.8378C10.62 19.8378 11.1194 19.5319 11.4182 18.969L11.553 18.715L11.5679 17.4662L11.5828 16.2175L11.8469 15.9481C12.394 15.3901 12.613 14.8662 12.613 14.1155C12.613 13.3595 12.3668 12.763 11.8418 12.2471C11.2009 11.6171 10.2447 11.3523 9.37026 11.5627ZM9.7529 12.5718C9.41819 12.6243 9.09136 12.7973 8.86393 13.0424C8.56437 13.3651 8.45305 13.6463 8.44974 14.0881C8.44733 14.4092 8.46794 14.4986 8.61062 14.7866C8.71223 14.9917 8.84194 15.1676 8.95307 15.2509C9.05148 15.3246 9.20525 15.4544 9.29483 15.5392L9.45768 15.6935L9.45797 16.9594C9.45812 17.6759 9.48026 18.304 9.50895 18.4067C9.65178 18.9174 10.3482 18.9174 10.491 18.4067C10.5198 18.304 10.5419 17.6752 10.542 16.9574L10.5423 15.6894L10.7215 15.5372C11.3885 14.9707 11.5451 14.7013 11.5499 14.1117C11.5525 13.778 11.5326 13.6786 11.415 13.4407C11.106 12.8159 10.4347 12.4649 9.7529 12.5718Z" fill="#808080"/>
</svg>
