<svg width="33" height="25" viewBox="0 0 33 25" fill="none" xmlns="http://www.w3.org/2000/svg">
<path fill-rule="evenodd" clip-rule="evenodd" d="M26.7712 0.0815829C26.6538 0.132907 26.4837 0.277884 26.3931 0.403844L26.2284 0.632862L26.2106 12.4131C26.1909 25.4687 26.1572 24.4782 26.6321 24.8141C26.8458 24.9652 26.8625 24.9661 29.5968 24.9661C32.3311 24.9661 32.3477 24.9652 32.5614 24.8141C33.0341 24.4797 32.9995 25.4531 32.9994 12.4824C32.9993 1.46558 32.9922 0.755278 32.8791 0.535461C32.813 0.406911 32.6716 0.238215 32.5649 0.16058C32.3775 0.0241236 32.2805 0.0188755 29.6777 0.00388027C27.5217 -0.00859305 26.942 0.00687928 26.7712 0.0815829ZM17.8967 7.82104C17.4348 8.10022 17.4637 7.53224 17.4637 16.3303V24.2984L17.6197 24.53C17.9339 24.9962 17.9587 24.9999 20.8171 25C23.5889 25.0001 23.6557 24.9924 23.9942 24.6285L24.1661 24.4439L24.1841 16.4047C24.204 7.51745 24.2324 8.10206 23.7675 7.82104C23.559 7.69494 23.4041 7.68792 20.8321 7.68792C18.26 7.68792 18.1051 7.69494 17.8967 7.82104ZM9.20754 9.75065C8.70187 10.0856 8.73356 9.58121 8.73349 17.2877C8.73335 24.9295 8.7075 24.4859 9.17145 24.8141C9.38517 24.9652 9.4018 24.9661 12.1361 24.9661C14.8704 24.9661 14.8871 24.9652 15.1008 24.8141C15.5647 24.4859 15.5389 24.9295 15.5387 17.2877C15.5387 9.58121 15.5704 10.0856 15.0647 9.75065C14.8318 9.59634 14.8235 9.59593 12.1361 9.59593C9.44869 9.59593 9.44044 9.59634 9.20754 9.75065ZM0.512477 15.4503C0.395752 15.5209 0.232625 15.6638 0.150065 15.7678L0 15.957L0.018698 20.2005L0.037396 24.4439L0.209253 24.6286C0.547811 24.9924 0.614629 25.0001 3.3864 25C6.24665 24.9999 6.2694 24.9965 6.58528 24.5277L6.74284 24.2939L6.72414 20.0858L6.70544 15.8776L6.53358 15.6929C6.19454 15.3287 6.13109 15.3214 3.32206 15.3217C0.899636 15.3219 0.710525 15.3305 0.512477 15.4503Z" fill="#808080"/>
</svg>
